<?xml version="1.0" encoding="utf-8"?>
<!-- Generator: Adobe Illustrator 24.2.0, SVG Export Plug-In . SVG Version: 6.00 Build 0)  -->
<svg version="1.1" id="Layer_1" xmlns="http://www.w3.org/2000/svg" xmlns:xlink="http://www.w3.org/1999/xlink" x="0px" y="0px"
	 viewBox="0 0 1923.36 168" style="enable-background:new 0 0 1923.36 168;" xml:space="preserve">
<style type="text/css">
	.st0{fill:#FFFF00;stroke:#000000;stroke-miterlimit:10;}
	.st1{fill:#666666;stroke:#000000;stroke-miterlimit:10;}
	.st2{fill:#666666;stroke:#000000;stroke-width:2;stroke-miterlimit:10;}
	.st3{fill:#FFFFFF;stroke:#000000;stroke-miterlimit:10;}
	.st4{fill:none;stroke:#000000;stroke-miterlimit:10;}
</style>
<rect x="2.86" y="0.5" class="st0" width="310.5" height="99.5"/>
<polygon class="st1" points="1792.86,119.5 1840.36,164.5 1922.36,164.5 1922.36,144.5 1840.36,144.5 1812.86,119.5 "/>
<polygon class="st2" points="2.86,1 152.86,120.5 802.86,120 852.86,167 1172.86,167 1222.86,120 1922.36,120 1922.36,1 182.86,1 
	312.86,100.5 282.86,100.5 152.86,1 132.86,1 262.86,100.5 232.86,100.5 102.86,1 82.86,1 212.86,100.5 182.86,100.5 52.86,1 "/>
<polygon class="st0" points="1922.36,144.5 1922.36,119.5 1812.86,119.5 1840.36,144.5 "/>
<ellipse class="st3" cx="908.86" cy="152.5" rx="12.5" ry="13"/>
<circle class="st3" cx="963.86" cy="152" r="12.5"/>
<circle class="st3" cx="1073.86" cy="152" r="12.5"/>
<circle class="st3" cx="1018.86" cy="152" r="12.5"/>
<circle class="st3" cx="1128.86" cy="152" r="12.5"/>
<ellipse class="st3" cx="881.86" cy="127" rx="12.5" ry="13"/>
<circle class="st3" cx="936.86" cy="127" r="12.5"/>
<circle class="st3" cx="1046.86" cy="127" r="12.5"/>
<circle class="st3" cx="991.86" cy="127" r="12.5"/>
<circle class="st3" cx="1101.86" cy="127" r="12.5"/>
<circle class="st3" cx="1156.86" cy="127" r="12.5"/>
<line class="st4" x1="802.36" y1="121.5" x2="870.36" y2="104.5"/>
<line class="st4" x1="1223.36" y1="121.5" x2="1170.36" y2="105.5"/>
<line class="st4" x1="869.86" y1="104.5" x2="1169.86" y2="105.5"/>
</svg>
