<?xml version="1.0" encoding="utf-8"?>
<!-- Generator: Adobe Illustrator 24.2.0, SVG Export Plug-In . SVG Version: 6.00 Build 0)  -->
<svg version="1.1" id="Layer_1" xmlns="http://www.w3.org/2000/svg" xmlns:xlink="http://www.w3.org/1999/xlink" x="0px" y="0px"
	 viewBox="0 0 1955 651.3" style="enable-background:new 0 0 1955 651.3;" xml:space="preserve">
<style type="text/css">
	.st0{fill:#FF00FF;stroke:#000000;stroke-miterlimit:10;}
	.st1{fill:#00FFFE;}
	.st2{fill:none;stroke:#000000;stroke-width:2;stroke-miterlimit:10;}
</style>
<g>
	
		<image style="overflow:visible;opacity:0.75;enable-background:new    ;" width="1946" height="651" xlink:href="DFE032FB.png"  transform="matrix(1 0 0 1 1 0.2943)">
	</image>
	<g>
		<g>
			<path class="st0" d="M10,320.3c11.9-2.4,23.8-5.5,35.8-7c13-1.6,26.1-8.3,38.6-1c-6,10.6-16.9,4.9-26,6.3
				c-10.6,1.7-21.1,4.3-31.8,5.7c-5.4,0.7-11.1-0.2-16.7-0.4C10,322.7,10,321.5,10,320.3z"/>
			<g>
				<path class="st0" d="M1291.9,435.9c5.2,1.8,10.4,3.6,15.6,5.4c0,0.6,0,1.2,0.1,1.9c-2.4-0.2-7-0.8-7-0.6c-1,5.5-11-5.8-8.8,4.7
					c-2.1,0.1-4.2,0.4-6.2,0.1c-0.4-0.1-0.3-2.8-0.5-5.1h-65.8c-0.1,1.3-0.1,0.8-0.2,2.1c5.3,0.7,10.7,1.3,15.9,2.3
					c4.3,0.8,8.8,1.7,12.6,3.6c5,2.5,6.5,1.1,6.2-4.7c14.1,2.6,27.9,5.1,43.3,8c-6.5,4.9-6.4,4.5-11.9,3.5
					c-3.8-0.7-10.2-1.6-11.3,0.2c-2.9,4.7-5.4,2.1-8.8,2.1c-18.4-0.4-36.8-0.2-56.7-0.2c4.1,0.8,7.2,1.5,10.3,2.1
					c-0.2,1.2-0.1,0.7-0.3,1.9c-9.6-0.8-19.2-1.8-28.8-2.5c-2.7-0.2-6.3-1-7.9,0.4c-8.8,7.2-14.8,2.8-20.4-4
					c-2.9,1.5-5.6,2.8-8.3,4.2c0-1.4,0-3,0-4.7c-3.5,1-8.9-3-10.6,4.1c-0.1,0.3-0.9,0.5-1.4,0.4c-5.1-0.2-5.1-0.2-2.4,6.8
					c-5.8-1.3-10.1-2.3-15.2-3.5c0.1-0.8-0.1,0.7-0.4,2.3c-6.1,0.5-12.6,1-19.5,1.5c0.8-1.2,1.6-2.5,2.4-3.9
					c-0.8-0.9-0.7-0.8-1.5-1.7c-3.7,1.7-7.3,3.5-11,5.2c-1.7-2.5-3.7-5.3-6.6-9.5c-1,4.5-1.7,7.3-1.8,7.9h-19.8
					c-0.1,1.1-0.1,0.7-0.2,1.8c9,1.5,18.7,1.5,26.9,5c6.8,2.8,14.1,3,20.3,3.3c6.9,0.3,12.9,2.9,19.4,3.3c8.3,0.4,16.7-0.1,25.1,0.3
					c3,0.2,5.8,2.8,8.8,3.1c13.7,1.5,27.5,2.7,41.3,3.7c2,0.1,4.2-1.6,5.7-2.3c2.6,1.4,5.2,3.9,7.8,4c11.9,0.6,24.5-2.1,34.5,8.5
					c1.4-2.9,2.2-4.6,3-6.2c4.7,0.9,9.2,2.2,13.8,2.4c2.1,0.1,4.3-2,6.5-3.1c-1.5-1.7-2.8-3.6-4.6-5c-1.5-1.2-3.5-1.8-5.1-4.6
					c4.9,0.5,9.8,0.9,15.3,1.4c-1.6,2.7-2.9,4.7-4.8,7.8c4.7,0.5,8.3,0.9,10.6,1.2c-4,2-8.8,4.5-13.7,6.9c0.6,1.5,0.4,0.9,1,2.4
					c3.9-1.3,7.8-3.3,11.9-3.6c4.6-0.4,9.4,0.7,14.1,1.1c-0.3,1.9-0.2,5.2-1,5.4c-6.3,2-11.1,8.2-18.6,7.1c-1.2-0.2-2.4,0.1-3.7,0.1
					c2.9,3.2,0.6,5.9-6.1,7c-4.3,0.7-8.5,1.1-13.2,1.7c0.9-2.6,1.9-5.4,2.9-8.3c-0.9-0.5-0.6-0.3-1.5-0.8c-1.6,2.1-3.3,4.2-5.1,6.5
					c-12.3,0-38.9,0-38.9,0s-0.1,0.7-0.2,1.2c6.7,0.6,13.4,1.2,20.1,1.8c0,0.3,0.1,0.5,0.1,0.8c-9,0.8-18,1.7-26.9,2.5
					c-0.1-0.5-0.2-1-0.2-1.4c2.1-0.4,4.1-0.8,6.2-1.2c0.1-0.5,0.1-1,0.2-1.5c-6.5-0.5-13-0.8-19.4-1.7c-5.1-0.7-10.2-2.3-15.2-3.4
					c-4.7-1-10-5-12.4,3.2c-0.2,0.6-2.7,0.5-6.6,1.1c16.2,6.1,32.6-1.4,46.7,8.4c-3.2,0.6-5.9,0.4-7.2,1.6
					c-6.2,5.6-12.9-0.1-19.5,1.1c-8.7,1.6-16.7,4.5-24.7,7.8c-2.8,1.1-5.7,1.9-8.5,2.8c-0.3-0.8-0.5-1.6-0.8-2.4
					c7.9-3.1,15.9-6.2,25.2-9.8c-14.2,0.7-27.1,1.3-38.3,1.9c-1.4-2.4-2.1-3.8-2.9-5.1c-0.8-1.2-1.9-2.2-2.8-3.3
					c1.7-0.4,3.3-1,5-1.3c3.3-0.6,6.6-1,9.9-1.5c-0.2-1.5-0.4-3.1-0.7-4.6c-10.9,1.5-21.8,3.1-32.7,4.6c-1,0.1-2.1-0.3-3.2-0.3
					c-5.8-0.3-11.7-0.3-17.5-1c-7.9-0.9-17.7,0.3-22.9-4.1c-4.6-3.8-8.5-5.7-12.8-4.4c-13.5,4.3-26.4-2-39.7-1.2
					c-7.2,0.5-14.5,0.1-21.3,0.1c2.2,3.4,3.8,5.9,5.5,8.4c-2,1.1-4.1,2-6.1,3.2c-1.9,1.2-3.7,2.6-5.7,4c-4.4-6.8-15.9-7.6-23.1-1.6
					c-9.1-8-20.6-2.2-30.5-7.1c-0.4,3.8-0.7,6.6-0.8,7.9c-20.7-4-42.2-8.3-63.6-12.5c-0.3,1-0.5,2-0.8,3c1.5,1.4,3.1,2.8,5.3,4.9
					c-2.5,0.8-4.4,1.4-7.5,2.5c9.8,1.6,18.3,3,26.9,4.3c-0.2,1-0.4,2.1-0.5,3.1c-10.5-1.9-21-4.1-31.6-5.7
					c-11.4-1.7-21.7-11-33.9-6.3s-24.1,1.5-36.1,0.6c-1-0.1-1.9-1.2-3-1.9c1.4-0.6,2.6-1.1,3.8-1.5c0-0.5-0.2-2.2-0.2-2.2h-17.9
					c-0.2,0.7-0.1,0.6-0.3,1.3c1.4,0.7,2.7,1.4,4.1,2.1c-24.1-5.5-48.6,0-73.3-3.2c5.9,7.7,17.8-0.9,22.8,10.3
					c-11.5-0.8-21.7-1.5-33-2.3c3.2,1.7,5.4,2.8,7.5,3.9c-0.4,0.7-0.8,1.5-1.2,2.2c-3.5-2.1-6.8-4.4-10.4-6.2
					c-2.7-1.3-5.9-3.3-8.3-2.7c-2.2,0.6-4.3,4-5.1,6.6c-0.3,1,3,3.8,5.1,4.7c4.4,1.8,9.7,2.1,13.5,4.6c6.8,4.6,13.9,4.7,21.4,3.9
					c2.7-0.3,5.4-0.9,8.3-0.5c-6.5,7.8-16.3,2.5-24,5.7c0.3,1.4,0.3,1.2,0.6,2.6c9.3,0,18.5-0.2,27.8,0.1c4.4,0.1,8.7,1.2,13.1,1.6
					c3.6,0.3,8.1,1.4,10.6-0.3c7.7-5.2,14.2-0.3,21.1,1.1c11.4,2.3,22.7,4.8,32.5,6.9c-1.5,2.3-6.8,7.3-5.9,9.3
					c4.6,9.8,13.4,4.4,20.9,3.3c-2.5-0.3-5-0.5-7.4-0.8c0-0.5,0.1-1,0.1-1.5c12.2,0.6,24.3,1.4,36.5,1.7c7.5,0.2,15-0.7,22.4-0.4
					c3.8,0.1,7.5,1.9,11.3,2.3c8.9,0.9,17.9,1.1,26.8,2.2c1.9,0.2,3.6,3,5.3,4.7c-1.2,1-2.4,2-4.2,3.7c6.3,2.1,12.7,4.1,19.1,6.2
					c0.5-0.9,0.4-0.7,0.9-1.6c-3.3-2.7-6.7-5.4-10.3-8.3c10.6,0,21.8,0,31.5,0c4.5,4.8,10.2,10.9,15.3,16.3
					c-7.1,0.9-16.2,2-25.2,3.2v2.8c-1.6-1.5-3.2-3-4.8-4.5c-11.9,9.5-26.5,0.3-39.8,4.1c-5.9,1.7-13.1-1.5-19.8-2.2
					c-2.1-0.2-4.3,0.2-7,1.6l6.2,1.6c-0.1,1.1,0,0.9-0.1,2c-2.6,0.4-5.1,0.8-7.7,1.2c0,1.2,0,0.8,0.1,2.1c3,0.2,6,0.5,9,0.7l0.2,2.3
					c-3.3,0.3-6.6,1.3-9.8,0.9c-9.9-1.1-19.8-3.1-29.7-4.1c-6-0.6-6.1,0-4.6-6.4c-5.5,4.3-10.6,8.2-15.6,12.2
					c-0.5,0.4-0.7,2.1-0.3,2.5c0.9,0.9,2.2,1.6,3.4,1.8c2.2,0.5,4.4,0.6,6.5,2.9H818c3.4,2.6,5.1,3.9,6.8,5.2
					c-0.4,0.8-0.3,0.7-0.7,1.5c-6.8-1.5-13.5-3-20.3-4.5c1.3-2.7,2.5-5.3,4.6-9.7c-7.2,1.3-12.8,2.1-18.4,3.4
					c-10.1,2.2-16.2-5-21-11c-7.4-9.2-15.7-6.5-21.5-1.7c-13.4,11-27.7,6.1-42,5.7c-7.1-0.2-14.5-4-21.5,1.6c-1.2,1-5-1.3-8-2.2
					c1,1.9,1.8,3.3,1.6,2.9c0-0.7-8.3,3.9-4.2-3.3c0.1-0.2-2.9-2.6-4.7-3.1c-7-2.1-14-4-21.1-5.5c-1.8-0.4-3.9,0.6-5.8,1
					c1.2,1.5,2.3,3,3.5,4.4c0.8,0.8,1.8,1.4,3.8,2.8c-11.5,0.8-12,8.3-11.4,15c-6.5-1.8-13.3-2.6-18.9-5.7c-4.4-2.4-7.5-6.4-13.5-5
					c-4.8,1.2-10,2-14.8,1.5c-3.5-0.4-8-2.6-9.8-5.4c-5-7.7-8.9-16.2-13.4-24.7c-1.8,2.8-3.3,5.3-4.9,7.8c-4,5.9-9,8.7-16.5,6.4
					c-8-2.4-17.2,4.8-17.2,12.6c2.1,0.2,4.2,0.3,6.3,0.5c-2,1.3-0.1,6.3-5,5c-0.5-0.1-1.4,2.7-2.5,3.5c-2.1,1.5-4.5,2.4-7.6,4
					c0.2-2.4,0.2-3.9,0.3-5.4c-0.7,0-1.6-0.3-1.8-0.1c-6.4,12.5-17.7,12-28.6,6.2c-8.3-4.5-15.6-10.8-23.8-15.7
					c-2.9-1.7-6.9-1.6-10.4-2.4c-0.3,0.8-0.6,1.6-1,2.3c-3.1-2.1-6-4.9-9.4-6.3c-4.2-1.7-8.4-1.6-8.5,5c0,1.3-0.6,3.1-1.5,3.7
					c-7.4,4.3-10.1,16.8-22.4,12.8c-6.9-2.3-14.4,0.7-21.4-6.2c-6.4-6.3-7.4-13.9-10.1-20.9c-3.1-8.1-4.3-15.5-15.4-17.3
					c-10.1-1.6-19.7-6.6-29.7-9.7c-1.9-0.6-4.4,0.7-7.6,1.3c1.8-1.9,2.9-3.1,2.6-2.7c-5.4-3.8-11.3-7.5-16.7-11.8
					c-3.3-2.6-5.8-1.9-8.5,3.6c-1.5-2.3-3-4.6-4.8-7.2c-1.8,2-3,3.5-3.4,3.9c-7.2-5.9-14.5-11.4-21.3-17.5c-2.8-2.5-4.5-6.3-7-9.2
					c-1.3-1.5-3.3-2.6-4.9-3.8c-4.3-3.3-8.5-6.8-13-9.8c-1.4-0.9-3.6-0.7-6.7-1.1c-1.4-3.7-3.4-9-5.7-14.9c4.3-3,6.5-3.8,11.7,1.5
					c7.1,7.3,17.3,11.5,26.1,17.1c7.8,5,15.3,10.7,23.3,15.3c12,6.8,24.4,12.9,36.7,19.1c5.2,2.6,10.4,5.5,15.9,6.8
					c6.9,1.6,14.1,1.7,19.6,2.3c2,4.5,3.7,8.4,5.6,12.7c3.9-9.3,7.6-18.3,11.4-27.5c-4.4-1.8-7-2.9-10.8-4.5c2.2-1.5,4-2.4,5.5-3.7
					c9-8,20.1-14.2,21.8-28.1c0.7-5.8,2.8-11.5,5.4-16.8c1.1-2.3,4.9-3.3,9-5.9c1.8-6.7,4.3-15.7,7-25.8c1.3,2.6,2.4,4.7,4.4,8.7
					c4.3-4.1,7.8-7.5,11.2-10.8c-4.8,10.7,5.2,9.6,10.5,11.1c4.5,1.3,10,0.9,14.6-0.3c6.3-1.7,5.8-8.2,3.1-11.4
					c-3.9-4.7-10-7.5-15-11c0.7-0.5,3.4-2.5,6.1-4.5c-5-6.7-18.1-9.1-29.1-7.9c-11.5,1.2-15.7,7.5-17.5,17.5c-0.5,2.7-2.6,5-5.7,6.9
					c-0.4-3.3-0.7-6.7-1.4-13c-2.9,4.7-4.4,7.1-5.9,9.5c-1.4-1.5-2.9-3.1-4.5-4.8c-1.3,0.9-0.9,0.6-2.2,1.5
					c4.3,8.8,4.3,8.8,16.9,9.5c-3.4,5.3-6.5,10.2-9.7,15.1c0.5,0.2,1.5,0.5,2.5,0.8c-2,7.8-8.3,0.6-12.6,3.3
					c-4.4,2.8-11.4,0.9-16.6,2.8c-4.6,1.7-6.6-0.1-9.5-2.6c-0.7-0.7-2.8,0.2-4.2,0.4c-3.4,0.5-6.8,1-10.5,1.5
					c1.1-4.5,2.1-8,3.3-12.9c0.3-0.1,2.9-1.4,6.4-3c-15.4-8.8-30.6-2.9-44.4-4.3c-3-5.3-5.6-10-9.1-16.3c-4.2,0.5-9.9,1.3-15.7,2
					c-7.1,0.7-14.1,1.5-21.2,1.9c-6.3,0.3-7-4-5.1-8.4c1.4-3.1,7.2-5.6,2.5-9.1c-2.6-1.9-7.7-0.5-11.7-0.6c-0.6,0-1.1-0.2-2.5-0.4
					c0-5.6,0-10.4,0-18.5c11.9,11.2,17.1,3.4,22.7-6.7c-2.3,9.5-4.1,16.6-5.8,23.6h9.3c0.7-3.5,1.7-8.3,2.7-13.2
					c2.5-11.7,2.5-11.4,15-10.6c6,0.4,12.1-0.4,17.8-0.6c-1.7-4.9-4.1-10.5-3.8-10.7c5-2.5,10.3-5.3,15.8-6.1
					c8.7-1.4,17.7-0.8,26.4-2.4c2.8-0.5,7.1-6,6.6-8.2c-0.7-3-5-6.1-8.5-7.4c-2.6-1-6.2,1.4-9.3,1.3c-25-0.8-50-1.7-75-2.8
					c-7.9-0.4-15.9-1-23.6-2.5c-3.9-0.8-7.9-3.1-11-5.8c-3.5-3-5.4-6.5-10.9-1.9c-2.9,2.4-8.6,1.4-13.1,3
					c12.6,10.6,26.3,17,43.9,19.1c-2.2,2.8-4.3,5.4-6.5,8.1c-0.6-0.5-1.3-1.1-2-1.6c0.6-0.5,1.3-0.9,1.6-1.6s0.1-1.6,0.1-2.2
					c-8.3,1.8-16.4,4.3-24.6,5.3c-8.2,1-16.7,1.3-24.9,0.6c-3.2-0.3-8.7-4.8-8.4-6.7c0.7-4.7,3.5-9.4,6.6-13.1
					c1.8-2.1,6-1.8,8.8-3.3c1.4-0.7,3.4-3.2,3.1-4.3c-2.1-7.5,2.9-7.5,7.7-8.1c4.5-0.5,9-1.2,14.5-2c-2.1-3-4.1-5-4.9-7.4
					c-0.8-2.7-1.5-6.2-0.4-8.4c1-1.9,5.3-4.1,6.9-3.4c12.4,5.5,25.1,3.3,37.6,1.3c6.4-1,12.3-4.5,20.1-7.5
					c-10.8-3.1-18.9-5.3-26.9-7.8c-0.3-0.1,0.2-2.6,0.2-2.6c12.3,2,24.1,3.9,35.9,5.8c0.3-1,0.5-2,0.8-3.1
					c-8.8-2.3-13.4-7.9-18.8-15.3c-7.1-9.8,0.1-15.1,2.6-23.3c5.7-0.6,13.5-1.5,21.2-2.3c1.8-13.7,2.1-13.8,22.5-17.2
					c4.7-0.8,9.3-2.2,15.2-3.6c-9.1-5.3-22.4-3.9-24.8,0.6c-8.5-1.4-16.8-2.4-24.9-4.3c-3-0.7-5.4-3.5-8.7-5.8
					c39.3-7.2,79.6-0.3,117.1-18.8c-9.5-8-8-16.9-5.1-27.8c2.3-8.6,4.2-19.1-2.6-28.4c-3-4-3-10.5-3.6-16
					c-1.4-12.5-2.4-25.1-3.4-37.7c-0.1-1,1.7-2.1,5.4-3.5c1.6,7.4,2.6,15.1,5.2,22.1c1.5,4,5.7,6.9,9.1,10.7
					c8.6-12.8,7.4-20.1-3.4-30.1c-0.5,2.9-0.9,5.5-1.7,10.4c-3.2-6.2-5.3-10.4-7.9-15.3c8.9-1.9,7.6-8.1,8.8-15.4
					c2.1-13.1-3.8-23.9-5-35.8c-0.2-2.4,1.4-4.9,2.2-7.4l2.5,0.4c0.8,6.5,1,13.2,2.5,19.5c1.3,5.7,2.7,12.1,11.2,11.9
					c1.4,0,2.9,4.7,4.7,7.9c0.7-4.7,12.8,2.4,8.1-8.7c-0.1-0.3,2.1-2.1,2.6-1.9c2.6,1.3,5.1,3,8.4,5c-0.3-2.6-0.6-5-0.9-7.4
					c0.8-0.3,0.6-0.2,1.5-0.5c2.5,4.4,5,8.8,7.5,13.2c1.2-0.5,0.8-0.3,2-0.8c-3.1-10.5-5.8-21.2-9.6-31.4c-2.5-6.6-2-12.8,3.5-15.5
					c4.1-2.1,10.5-0.8,15.6,0.3c11.7,2.6,14,13.4,17.6,22.6c1.2,3.1,1.4,7.2,0.4,10.3c-1.7,5.1-0.3,6.4,4.5,8
					c3.7,1.3,7.8,4.9,9.3,8.5c6.4,15,14.9,28.3,27.9,38.1c2.5,1.9,6.7,1.4,8.1,1.6c3.5-9.6,6.5-17.7,9.5-25.8
					c0.1-0.3,0.4-0.5,0.4-0.8c0.3-10.2-1.2-21.4,13.8-22.8c0.2,0,0.4-1,0.5-1.6c3.6-13.4,7-26.8,11-40c1.5-4.8,5.7-8.8,6.6-13.6
					c1.9-9.2,2.5-18.8,3.4-26.9c18.3,17,16.4,18.6,16.8,33.1c1.4-1.1,2.5-2,5.5-4.2c-5.2,23,1.6,46.1-9.9,67.6
					c13.2,11.7,15.5,29.2,18.7,46.6c1,5.5,7.6,10.3,7.7,15.5c0.2,12.5,11.9,14.4,17.3,21.7c0.7,1,3.4,0.4,5,1
					c1.9,0.8,5.3,2.4,5.2,3.1c-1.6,8.3,4,7.9,9.1,7.5c12.9-1,25.7-2.4,38.6-3.5c16.8-1.3,33.7-2,50.5-3.9c6.3-0.7,12.7-1.3,18.7-6.9
					c5.6-5.3,15.1-7.2,23.2-8.7c9.5-1.8,19.5-2.5,29.2-1.8c13.5,1,26.9,3.3,40.2,6c6.6,1.4,11.7,1.3,18.2-2.1
					c7-3.7,15.8-3.8,24.2-1.4c3.7,1,8-0.5,13.3-1c0,0,1.3,1.7,1.8,3.5c1.2,5.1,2,4.6,5.8,1.3c3-2.7,8.4-2.6,13.1-3.9
					c-0.3,3-0.4,4.5-0.7,7.2c5.9-2.1,10.6-3.7,17.1-6c2,0.5,4.7,9.6,11.9,0.5c2.7-3.4,13.1-0.3,20-0.9c5.2-0.4,10.3-2.4,15.4-2.5
					c5.9-0.1,11.8,1.1,17.8,1.7c0.1,1,0.2,2,0.4,3.1c2.2-2.3,4.2-4.9,6.7-6.8c2-1.5,5.6-3.8,6.9-3.1c10.7,6.2,22.1,1.3,33,2.1
					c11.1,0.8,22.4-1.3,33.6-1.3c30.9,0.2,61.8,0.9,92.8,1.5c7.9,0.1,15.8,0.6,23.6,0.9c13,0.4,26.3-0.4,39,1.7
					c6.9,1.2,12.9-0.6,19.3-0.6c10.7,0,21.5,0.4,32.2,0.4c8.7,0,18.5-2.8,25.7,0.5c6.4,3,12.4,2.7,18.5,3.4
					c6.3,0.7,12.8-1.4,19.3-1.7c5-0.2,10,1,15.1,0.9c27.7-0.4,55.3-1.8,83-1.3c17.5,0.3,35.4,1.5,52.4,5.5c16.4,3.9,32.2-0.8,48.3,1
					c1.3,0.1,3.1-2.9,4.5-4.5c0.9-1,1.2-2.6,2.3-3.3c0.8-0.6,2.5-0.6,3.4-0.2c3.4,1.6,6.6,3.6,10.1,5.6c-0.3,0.1-1.6,0.9-4.8,2.7
					c4.8,0.4,8,0.6,10.3,0.8c-1.2,2.1-2.9,5.1-4.7,8.3c6.4,0.7,10.4,1.1,14.3,1.5c3.4,0,6.9-0.4,10.3,0.1c3.8,0.6,7.8,4,10-2.4
					c0.2-0.6,2.5-0.9,3.8-0.8c5.2,0.3,10.6,1.8,15.7,1.1c5.7-0.9,7.9,0.8,7.8,5.4c8.1-1.8,16-3.4,23.8-5.1
					c18.3-4.1,38.3-2.9,53.3-17.9c3,1.8,5.9,3.6,7.3,4.4c-0.7,5.1-1.3,9.9-1.7,13c12.1,3.1,22.3,5.8,34.1,8.8
					c-3.3,1.8-5,2.7-6.7,3.6c3.5,1.3,7,2.5,11.9,4.3c-11.7,0-22.1,0.4-32.5-0.1c-7.3-0.3-8.5,1.3-5.5,10.6c1.3,0.1,2.7,0.2,4.2,0.2
					s3,0,4.4,0c-1.9,4.1-6.1,8.7-5,11.5c2.2,5.8,2.6,14.8,12.5,13.6c2.9,6.2-4.7,15.1,6.3,18.2c-5.9,11.4-14.6,20-25.6,23.6
					c-10.9,3.6-23,3.4-36.5,5.1c-0.8-0.2-4-1.9-7.3-2c-13.5-0.3-26.9-0.2-40.4-0.1c-9,0-11.5,4-8.8,10.3c-3.4-0.2-7.8-1.1-11.7-0.2
					c-1.3,0.3-1.3,5.7-1.7,8c-7.7-1.9-16.1-4.1-24.6-5.9c-14.6-3-14.6-2.8-18.3,8c-5.6-2-11.1-5-16.9-5.7
					c-6.4-0.8-13.2,0.5-19.6,2.2c4.4,1.4,9.2,2.1,12.9,4.5c2.6,1.7,3.5,5.8,5.1,8.9c-3.2,1.2-2.8,6.9-10.3,3.7
					c-5.5-2.3-17.5-1.9-24.4,6.1c-2,2.3-6,2.9-9.2,4.2c-2.6-4.5-15.6-8.4-24.2-6.5c-3.7,0.8-7.7,4.7-10.2-1.6
					c-2,1.3-3.9,2.6-6.6,4.5c-0.8-0.7-2.3-2.2-3.6-3.5c-9.2,4.5-6.2,11.8-4.4,18.6c4.9-3.3,9.6-6.4,14.3-9.6
					c-2.9,7.8-5.6,14.5-16.1,13.3c-5.2-0.6-10.9,3.4-16.4,5.2c-1.2,0.4-2.8,1.1-3.7,0.6c-4.3-2.5-8.8-5.1-12.6-8.3
					c-2.5-2.1-3.6-6.3-8.1-3.4c-2.4-8.3-9.3-1.8-14.6-4.5c4.9-1.5,9-2.7,14.5-4.4c-8-6.3-17-2.5-25.3-3.4c0.5-1.2,1.1-2.3,2.2-4.8
					c-12.6,1.2-24.2,2.3-36.1,3.4c1.1,4.5,1.7,6.9,2.3,9.1c-2.2-0.2-4.4-0.4-6.6-0.6c0.1,0.9,0,2.6,0.4,2.7c2,0.6,4,1,6.1,1
					c7.4,0.2,14.8,0.3,22.2,0.6c0.3,0,0.6,1.5,0.9,2.4l0.3-0.2c-6.5,1-12.9,2.1-22,3.5c5.9,3.1,9.3,5,14.9,8c-6.3,0-9.7,0-13.2,0
					c-1.3-1.5-2.4-3-3.8-4.4c-1.5-1.4-3.2-2.5-4.7-3.8c-0.4,0.6-0.9,1.2-1.3,1.8c1.3,0.6,2.5,1.2,3.7,1.9c-0.2,0.9-0.2,0.8-0.4,1.7
					H1342c7.3,3.2,13,5.8,19,8.4c0-2.3,0-2.5,0-4.2c3.5,2.5,10,2,9.9,8.2c2.2-0.1,4.4-0.2,6.7-0.3c-0.3,0.4-0.6,0.8-0.9,1.1
					c3.1,1.2,6.5,3.7,9.2,3.2c9.2-1.8,17.2-0.4,24.4,4.3c-0.6,1.7-0.5,1.5-1.1,3.1c-4.7-0.4-9.5-0.6-14.1-1.4
					c-3.8-0.7-7.5-3.2-11.2-3.2c-12.6-0.1-25.1,0.9-37.7,0.9c-4.2,0-8.4-2.6-12.5-2.5c-8.2,0.2-16.3,1.8-24.5,2.2
					c-6.3,0.3-12.7-0.5-19.1-0.5c-3.2,0-6.3,0.6-9.4,1.2c-0.6,0.1-1.1,1.1-1.7,1.6c-9.6-8.3-18.7,3.4-28.4,0.5
					c-4.7-1.4-10.1-1.2-15.1-1.6c-0.7,0-1.4,0.8-2.7,1.6c0.9,1.5,1.7,3,2.9,5c-13.7,0.9-27,7-38.9-3c0.6-0.2,2-0.7,5-1.7
					c-7.7,0-13.8,0-19.9,0c-0.1,1.2-0.2,2.7-0.2,3c-28.2,0-55.2,0-82.5,0c4.5,6.9,5.7,7.4,14.4,7c1,0,2.2,1.2,3.1,2
					c1.1,0.9,2.1,2.9,3.2,2.9c7.9,0.3,16.7-2,23.7,0.7c11.8,4.5,22.1-5.6,33.6-1.5c-1.1,0.8-1.9,1.3-2.7,1.9c0.5,0.4,1,1.1,1.5,0.6
					c3.3-3.2,8.2-3.7,11.9-0.9c6.1,4.5,9-5.5,15-1.3c0.9,0.7,1.8,1.7,2.9,1.9c1.6,0.3,3.6,0.6,5,0c0.7-0.3,0.5-2.7,0.8-5.2
					c4.4,3.2,8.5,6.3,14.4,10.6c8.9-0.6,20.8-3.1,32,5.3c-6.3,0-16.2,0-16.2,0l-0.3,4c0,0,13,0,20.5,0c0.6-1.6,7.8-1.1,16.3,3.5
					c-2,0.5-3.7,0.9-5.7,1.3c2,1.4,3.8,2.6,6.4,4.4c-6.9,1-11.8,5.2-19.4,1.1c-6.8-3.7-16-3.2-24.1-4.2c-1.3-0.2-2.9,1.3-6.2,3
					c5.3,0.3,8.5,0.5,10.3,0.6c2.3,3.4,3.6,7.8,5.9,8.4c3.5,0.9,7.3,4,11.7,1.3c0.7-0.5,3.7,2.7,4.4,5.6
					c-12.3-0.6-24.6-1.2-38.6-1.9c6-2.3,10.5-4.1,14.8-5.8c-4.6-6.8-38.3-8.4-48.3-5.2c4.3,0.5,8.7,0.9,13.9,1.4
					c-2.4,1.7-4,2.8-5.7,3.9c1.4,1.5,2.9,3,5.1,5.3c-4.1,1.2-7.3,2.2-10.4,3.1c-0.3-0.7-0.3-0.5-0.6-1.2c1.7-1.3,3.4-2.6,6.4-4.9
					c-17.2,1.8-32.8,3.5-48.5,4.8c-2,0.2-4.1-2.1-6.3-2.9c-2.2-0.8-4.6-1.2-7.3-1.8c1.4,2,3.2,4,2.9,4.4c-3.9,5.8-0.2,7,4.3,6.7
					c10.7-0.7,21.4-2.1,32.1-2.8c3-0.2,6.6,0,9,1.5c1.2,0.8,0.2,5,0.2,9.7c6.9-0.3,14.7-0.8,22.5-1c7.6-0.2,8.9-3.8,5.4-10.3
					c2.9,0,5.7,0,9.3,0c-2.1,1.1-3,1.6-4,2.1c1.3,3.5,14.3,8.6,17,6.3c7.2-5.9,14.7-1.8,22.2-0.7c-1.4,0.5-2.9,1-4.4,1.5
					c0.3,0.4,0.6,1,0.9,1c9.5,0.1,19,0.4,28.4,0c3.4-0.1,6.7-1.7,10.1-2.7L1291.9,435.9z M1220.6,500.1c-9.2-0.3-18.3-0.6-27.5-1
					c-7.2-0.3-14.5-0.1-21.6-1.1c-5.9-0.9-11.6-6.4-17.2,0.6c-0.1,0.1-1.4-1-2.2-1.1c-10.8-0.6-21.7-6.6-32.5,0.2
					c-1.6,1-4.3,0.1-6.4,0.1c0-0.6-0.1-1.2-0.1-1.8c2.7-0.4,5.4-0.9,8.2-1.3c-6.5-1.7-13.8-0.6-19.1-3.3c-7.2-3.7-17.5,4.4-22.1-6.5
					c-0.1-0.1-0.6-0.1-0.8-0.1c-15.2-2-30.3-3.9-45.5-5.9l-0.5,3.2c12.2,2,24.3,4,36.5,6.1c-0.1,1.3-0.1,0.8-0.2,2.1h-14.5
					c40.4,14.5,82.2,10.8,123.8,11.4c-1.3,0.8-2.6,1.6-4.7,2.9c8.2,1.9,15.4,3.5,24.5,5.6c-3.3-2.7-4.8-3.8-7-5.6
					c2.2,0,3.4-0.4,3.9,0.1c5.6,5.8,12.7,2.8,19,2.9C1216.4,507.5,1218.5,502.6,1220.6,500.1c11.6,3.5,23.4,7,36.7,11.1
					c-0.6-4.5-0.8-6.3-1.1-8.9c3.8,1.6,7.3,4.3,10.5,4c6.4-0.6,12.7-2.9,19.1-4.5c-13.3,3.5-27.4-9.3-40.5,2.1
					c-1.9,1.6-8.4,3.2-7.2-4.3C1232.3,499.7,1226.5,499.9,1220.6,500.1z M554.7,347.2c-0.1-0.7-0.2-1.5-0.4-2.2
					c6.3-1.3,12.7-2.5,21.1-4.2c-8.9-1-15.7-1.1-22.2-2.7c-6.8-1.7-13.1-1.4-20-0.1c-13.2,2.5-13.5,1.8-16.1-2
					c4.3-0.8,8.9-1.1,13.1-2.5c4.2-1.3,8.1-3.6,12.4-5.5c-3.8-0.6-10-3.3-11.6-1.6c-3.8,4.1-5.5,3.9-8.5-0.1c-0.5-0.6-3-0.4-4,0.3
					c-4.1,2.9-8.2,4.9-13.4,2.9c-0.7-0.3-2.7,0.9-2.7,1.4c0,5.3-0.8,11,0.9,15.8c0.8,2.2,6.4,3.3,9.9,3.8c4.4,0.7,8.9,0.3,13.4,0.4
					c0.4,0,0.7,0.5,1.2,0.9c-1,0.6-1.9,1.1-2.8,1.7c9.3,5.3,32.5,4.6,40-1.5C561.3,350.2,558,348.7,554.7,347.2z M629.2,504.4
					c-10.1,2.3-10,2.6-13,9.9c-2,4.7-4.9,9.2-7.7,13.5c-4.7,7.2,1.2,23.6,8.9,22.7c10.1-1.2,19.8-4.8,29.9-7.5
					c-1.5-3.6-2.7-6.2-3.8-8.8c2-0.9,3.7-1.6,6.3-2.8C640.5,523.5,626.4,520.6,629.2,504.4z M1111.8,436.8c-1.2,7.5-0.7,7.9,9.8,9.3
					c-0.2,0.8-0.3,1.5-0.5,2.3c-6.1-1.4-12.3-2.7-18.4-4.1c-0.1-0.9-0.3-1.8-0.4-2.7c-1.9,2.8-3.8,5.6-5.4,8.1c4.9,1.7,9.5,5,12.8,4
					c12.5-3.4,24.9-2.1,37.4-1.1c5.4,0.4,11,0.6,16.3-0.3c6.1-1,12-3.9,17.3,2c1,1.1,3.5,0.7,6,1.1c0.2-3,0.3-5.2,0.5-6.8
					c-8.9-1.7-17.2-4.6-25.4-4.5c-8.3,0.1-16.6,3.8-24.4-2.2c1.2,1.2,2.3,2.5,3.4,3.7c-0.6,0.9-1.1,1.8-1.7,2.6
					c-7.1-4.1-14.3-8.2-21.4-12.4c-5-2.9-9.9-5-15.4,0.4C1105.7,436.4,1108.3,436.6,1111.8,436.8z M1524.6,261.9
					c-0.4,0.6-0.9,1.2-1.3,1.7c1.2,1,2.3,2.7,3.6,3c8.1,1.7,53.5-5.3,57.6-9.8c-11.8,1.2-22.2,2.3-32.6,3.4
					c-2.6,0.3-5.2,0.5-7.8,0.7c-0.1-0.9-0.2-1.7-0.2-2.6c2.5-0.8,5-1.5,9.3-2.8c-14.2-7.2-27.8,2.7-40.4-4.1c3,12.3,13.1,6,18.7,11
					C1529.2,262.2,1526.9,262.1,1524.6,261.9z M579.1,431.1c-3.6-3.1-5.7-5.9-8.5-7.2c-2.7-1.2-6-0.8-9.1-1.1
					c0.1,2.3,0.6,4.6,0.3,6.8c-0.2,1.5-1.3,3.8-2.4,4c-5.7,1.3-11.6,2-17.3,3c-2.2,0.4-4.3,1.3-6.5,1.9c0.1,0.6,0.2,1.2,0.3,1.8
					c8.6,1.3,17.2,2.6,27.1,4.1C567.1,441,572.5,436.5,579.1,431.1z M314.5,446.5c2.7,2.6,5.1,7,8.1,7.5c11.5,2,22-2.2,32.9-6.9
					C347.7,441.5,347.7,441.5,314.5,446.5z M1111.9,409.5c2.5-0.6,4.8-1.8,6.9-1.5c4.6,0.7,9.2,2.2,13.5,3.3c-0.1,0.2-0.7,1.3-1.6,3
					c12.6,0,24.3,0,36,0c0.1-1.3,0.2-2.5,0.3-3.8c-22.3-4.6-45.1-4.3-67.6-7.2c-0.1,0.8-0.2,1.5-0.3,2.3
					C1103.5,406.9,1107.9,408.3,1111.9,409.5z M460.2,103.2c-5.9-3.3-9.9-5.4-13.8-7.6c-0.2,0.7-0.4,1.5-0.5,2.2
					c-3.8-0.9-7.6-1.8-12.2-2.8c-0.3,2.7-0.7,6.2-1.1,9.6c0.9-0.6,1.7-1.3,2.6-1.9c2.9,1.6,5.8,3.2,8.6,4.9c3.4,2,6.7,4.1,10,6.2
					C456,110.2,458.1,106.6,460.2,103.2z M449.5,342.3c11.6,0,23,0,35,0c-1.3-3.8-2.1-6.1-2.5-7.2
					C468.9,330.9,457.8,332.8,449.5,342.3z M684.7,407.4c0.3,0.8,0.6,1.6,0.8,2.3c5.7,0,11.5,0.2,17.2-0.3c0.7-0.1,1.1-4,1.4-5.2
					c-16.2,0-31.3,0-44.3,0c5,1.3,13.8,1.2,18.8,5.5C685,415.6,682.8,408,684.7,407.4z M1300.6,313.3c3,0.1,5.7,0.2,8.4,0.4
					c1.5,0.1,3.1,0.4,4.5,0.2c0.4-0.1,1.1-2.3,0.7-2.7c-1.4-1.6-4.1-4.5-4.7-4.1c-3,1.7-7.4-4.2-10,2.3c-0.7,1.8-7.3,1.3-11.2,1.8
					c-0.2,1-0.3,2.1-0.5,3.1c4.8,0.9,9.6,1.9,15.7,3C1302.2,315.5,1301.6,314.7,1300.6,313.3z M670.4,502.7c2,10.2,10.3,12.1,21.7,5
					C684.5,505.9,677.9,504.4,670.4,502.7z M848.3,596c6,0.6,11.7,1.2,17.6,1.9c0.4-1.1,1.2-3.3,2-5.4
					C850,588.1,847.4,588.7,848.3,596z M1019.5,430.4c-0.2,1-0.4,2-0.6,3c6.1,1.5,12.2,3,18.4,4.5c0.3-0.8,0.7-1.6,1-2.4
					c-1.6-0.9-3.3-1.8-6.3-3.5c4.2-0.3,6-0.5,7.9-0.6c-0.1-1-0.2-1.9-0.2-2.9C1033,429.1,1026.3,429.8,1019.5,430.4z M465.3,355.2
					c0.3-1.3,0.6-2.6,1-3.9c-3-0.6-5.9-1.2-9-1.8c0.3-2,0.6-3.8,1-6.3c-4.4,1.7-8.1,3.1-11.9,4.5c0.1,0.9,0.1,1.7,0.2,2.5
					C452.8,352,459.1,353.6,465.3,355.2z M829.2,567.7c4.9,10.3,13.4,3.2,19.7,6.4C847.4,568.3,841.1,566.4,829.2,567.7z
					 M1302.4,332.6c-5.4-4-9.6-7-13.8-10.1c-0.5,0.3-1.1,0.6-1.6,0.9c1.4,2.5,2.9,5.1,4.8,8.5c-3.2,0.3-6.8,0.6-10.4,0.9
					c0.1,0.7,0.2,1.4,0.2,2.1C1288.1,334.2,1294.5,333.5,1302.4,332.6z M1188,400.4c-8.1-5.3-14.5-8.2-19.3,2.7
					c3.3-1.1,6.2-2,9.3-2.9c-0.1,1.1-0.2,2.5-0.3,5C1181.3,403.5,1184.1,402.2,1188,400.4z M1325.9,331.5c0.7,1,1.5,2,2.2,2.9
					c7.6,1.2,10.9-2.2,9.8-12.1C1333.3,325.8,1329.6,328.7,1325.9,331.5z M1145.2,521.3c8.7,6.4,18.3,0.5,27.6,2.3
					c0-0.8,0-1.5,0-2.3C1163.5,521.3,1154.3,521.3,1145.2,521.3z M1228.8,344.8c-0.1,0.6-0.2,1.2-0.3,1.8c7.2-0.7,14.4-1.3,21.5-2.4
					c0.8-0.1,1.2-3.4,1.4-4.1C1243.5,341.7,1236.2,343.2,1228.8,344.8z"/>
			</g>
			<path class="st0" d="M653.2,62.1c1,6.6,2.9,12.6,2.6,18.5c-0.5,10.2-3.6,20.3-3.4,30.4c0.1,7.1-1.2,13.7-1.6,20.5
				c-0.4,6.5,2.1,13.8,5.3,19.8c5.3,9.9-0.1,18.4-2.3,27.1c-0.3,1-7.9,1.3-11.6,0.2c-4.6-1.3-8.7-4.3-14.7-7.5
				c0,0.5-0.8-1.6-0.1-2.7c3.6-5.8,1.4-11,0.2-16.9c-1.3-6.3-2.4-12.6-1.1-19.9c1.5-8.5-2.8-18-4.5-27.1c-1-0.1-1.9-0.1-2.9-0.2
				c-2,2.3-4.3,4.5-5.9,7.1c-1.6,2.6-2.4,5.7-3.6,8.6c-1-0.2-1.9-0.4-2.9-0.6c0.3-2.5-0.3-5.6,1-7.5c7.5-11.2,9.6-23.5,9.1-36.8
				c-0.4-9.2,7.1-14.9,18.3-15.1c3.3-0.1,6.7,0.2,10,0.6C648,60.9,651,61.7,653.2,62.1z"/>
			<path class="st0" d="M1919.6,185.2c2,0.2,3.4,0.4,4.9,0.5c0,0.9,0,0.6,0.1,1.5c-5.8,1.1-11.5,2.2-18,3.5c1.1,2.1,2,3.9,2.4,4.6
				c-4,3.1-7.3,7.7-11.6,8.6c-6.6,1.5-13.8,1.4-20.5,0.3c-16.1-2.7-33.1,1.4-48.7-6.5c-2.7-1.4-7.3,1.2-11.1,2
				c-1.7,0.4-3.4,1.1-5,1.1c-11-0.2-22-0.3-32.9-1c-3.7-0.2-7.4-1.8-11.3-2.9c4.8-5.7,9.6-6.5,25.6-4.4c0.4-1.8,0.9-3.7,1.2-5.1
				c21.5,11.8,42.9,3.3,64.2,1.3c0.2-1,0.4-2.1,0.6-3.1c-6.4-1.5-12.8-3.7-19.3-4.3c-17.7-1.6-35.4-2.5-53.1-3.8
				c-2.3-0.2-4.4-1.5-9-3.2h26.3c0.1-1.4,0.1-0.8,0.1-2.2l-5.7-0.7c0-1.6,0-1.1,0-2.7c4.9-0.5,9.7-1.1,14.6-1.4
				c1.3-0.1,2.8,1.3,4.1,1.1c20.8-2.7,40.2,6.1,60.4,6.8c9,0.3,18.1-2.2,27.2-3.1C1917.9,171.1,1918.9,172.1,1919.6,185.2z"/>
			<path class="st0" d="M988.2,577.9c6.5,1,9.4,1.4,12.2,1.8c0.5-4.6,5.2-10.1-2.3-11.2c-9.5,0.7-19,1.4-30.3,2.2
				c2.5-2.2,3.7-4.1,4.9-4.1c12.4,0.2,24.6-7.1,37-1.8c3.6,1.5,6.5,5,9.4,8c1.3,1.3,1.7,3.6,2.5,5.4c2-1.1,4.5-1.8,5.7-3.4
				c0.6-0.9-1.3-3.5-1.9-4.9c2-2.2,4-4.3,6-6.5c1,7.8,11.9,7.3,15.5,14.6c0.2,0.4,1.1,0.8,1.3,0.6c7.1-5,14.3-4,22.3-2.1
				c1.7,0.4,5-5.9,8-9.7c0.8,0.3,2.5,1,5.3,2.1c-2.2,1.5-3.8,2.6-5.9,4c3.3,0.5,6.3,0.9,9.7,1.4c-3.5,2-6.4,3.6-9.3,5.2
				c0.2,1,0.2,0.9,0.4,1.9c4.4,0.4,8.8,0.7,15,1.2c-5.1,3.8-8.1,6.2-11.9,9.1c-1.2-1.5-3.3-4.1-6-7.5c-1,2-1.8,3.6-2.4,4.8H1063
				c-0.3,1-0.3,0.9-0.5,1.8c2.8,1.8,5.7,3.5,8.5,5.3c-0.3,0.7-0.6,1.4-0.8,2.2c-3.5-1.3-7.6-2-10.4-4.2c-2.1-1.6-2.5-5.3-4.6-10.2
				c-5.6-0.4-15.3-4.1-21-0.8c-7.1,4-13.7,6.4-21.5,7c-0.6,0-1.2,1.1-1.8,1.6c-2.5-10.7-11.4-3.6-16.8-6.2
				C991.7,584.8,990.6,581.4,988.2,577.9z"/>
			<path class="st0" d="M368.5,115.5c1.5-4.3,2.6-7.6,4.5-12.9c2.5,4.3,4.3,7.4,6.1,10.5c-0.9,0.1-1.9,0.2-2.8,0.3
				c-0.4,4.3-2,9-1,12.9c3.6,13-2.4,22.9-8.8,33.4c-5.9-4.3-16.5-2.1-16.7-13.5c0-2.7,0.7-5.5,0-8c-1-3.7-2-9.1-4.7-10.4
				c-6.4-3.1-9.6-7-9.5-14.1c0-2-1.7-3.9-2.8-6.2c8.2-2.1,15.9-4,24.5-6.2C353.3,113.7,362.4,112.5,368.5,115.5z"/>
			<path class="st0" d="M338.4,55.7c7.9-3.7,13.3-6.3,17.3-8.1c7.2,4.2,13.3,7.8,20.5,12c2,4.8,5,11.9,8.1,19
				c2.5,5.6-1,13.6-9.1,17.3c-5.7,2.6-11.8,1.8-15.7-3.9c-5.8-8.3,2-10.7,5.5-13.2c0-4.2,0-7.1,0-10.5c-2.3,1.6-4.7,3.4-7.7,5.6
				C351.3,68.1,345.2,62.2,338.4,55.7z"/>
			<path class="st0" d="M1290.6,435.5c-7.2-0.7-14.4-1.5-21.6-2.2c-4.1-0.4-8.2-0.6-12.4-0.9c0-1.7,0-1,0-2.6
				c20.9-1.3,41.8-2.7,62.3-4v-7.1c-2,0.4-5.2,1.7-8.3,1.5c-2.1-0.2-4-2.5-5.2-5.3c3.5,0.3,7.3,1.4,10.5,0.6
				c4.9-1.2,13.1,2.5,13.2-7.6c0-0.8,3.1-1.5,5.5-1c-0.9,0.6-1.8,1.2-2.9,1.9c7.2,5.7,13,1.8,18.7-2.4c2.3,8.2,5.1,8.9,16.4,5.3
				c0.7-3.7,1.2-6.5,1.7-9.3c2,0,1.6,0,3.6,0c1.2,5.8,2.3,11.7,3.6,18c-6.2-0.9-12.3-1.8-18.4-2.5c-1.2-0.1-3.3,0.7-3.6,1.5
				c-0.3,1.1,0.7,2.7,1.4,4.5c-3.8-0.4-8.2-0.8-11.8-1.1c-0.2,3,0,6.3-0.5,6.3c-2.5,0.5-5.1,0.2-9.4,0.2c2.9-1.6,4.1-2.2,7.2-3.9
				c-6.5-1.2-11.1-2-16.2-2.9c-0.2,10.2-9,3.6-15.4,6.8c5.1,1.4,8.4,2.3,11.7,3.2c-0.3,1.6-0.2,0.9-0.6,2.5l-15.3-2.5
				C1301.4,434.7,1293,426.9,1290.6,435.5C1290.5,435.5,1290.6,435.5,1290.6,435.5z"/>
			<path class="st0" d="M1106.7,528.4c1-2.8,1.5-4.8,2.5-6.4c0.4-0.7,2-1,3-0.9c0.6,0,1.4,1,1.6,1.6c1.9,6.7,2.6,7.7,7.7,8.8
				c1.6,0.3,3.3,0.2,5,0.3l-0.2,2.2c-15.5-2.3-30.9-4.6-47.7-7c2.3,4.1,3.5,6.4,4.8,8.7c-0.9,0.9-1.7,1.7-2.6,2.6
				c-2-3.5-3.9-7.1-4.9-8.8h-33.8c2-1.3,3.6-2.4,7.2-4.7c-5.8-1.9-9.8-3.2-13.5-4.4c-1.2,3.3-2,5.5-2.8,7.7c-1.5-2.3-3-4.6-4.7-7.4
				c-0.3,0.1-2.1,0.9-3.7,1.5c-0.5-0.6-0.5-0.6-1.1-1.3c1.9-3,3.7-6.1,4.8-7.8c3.4,1.9,5.5,3.9,7.8,4.3c13.1,2,26.3,3.5,39.4,5.5
				C1085.6,524.2,1095.6,526.3,1106.7,528.4z"/>
			<path class="st0" d="M832.3,153.6c-2.2-2.3-3.2-3.4-5-5.4c0.2,3.2,0.3,5.5,0.4,8c-3.3,0.5-6.5,1.6-9.6,1.4
				c-20.3-1.1-40.5-2.5-60.7-4.1c-1.5-0.1-2.8-2.5-4.2-3.9c1.4-0.7,2.9-2.3,4.1-2c5.3,1.2,10.4,3.1,15.7,4.3c1.3,0.3,2.9-1,4.4-1.2
				c9.5-1.3,19.1-2.5,28.6-3.8c4.9-0.6,9.8-1.3,14.8-1.6C825.7,145,831.2,144,832.3,153.6z"/>
			<path class="st0" d="M1153,574.2c-2.7,2.4-5.1,4.6-8.7,8c0.8-2.5,1.2-3.7,1.9-6c-3.1-0.2-5.9-0.4-9.6-0.6
				c1.8,2.4,3.1,4.1,5.8,7.7c-3.8-1.2-5.5-1.8-7.2-2.2c-8.8-1.9-17.6-3.8-26.8-1.5c-1.9,0.5-4.9-3-7.4-4.7c0.5-0.8,0.9-1.7,1.4-2.5
				h20.4c0.1-1.1,0.1-0.7,0.2-1.8c-4.5-0.8-8.9-1.6-14.4-2.5c5-1.9,8.9-3.5,14.6-5.7c-3.5-2.7-5.4-4.1-7.3-5.6
				c0.3-0.2,0.6-0.6,1-0.6c4.9,0.5,9.9,1,14.7,1.9c1.4,0.3,2.5,2,3.8,3.1c-1.2,1-2.4,2-4,3.3c1.2,0.7,2.9,1.6,5.4,3
				c-2.8,0.9-3.9,1.3-5.1,1.7c0.2,0.4,0.3,1,0.5,1.1c2.2,0.6,4.5,1.8,6.5,1.4C1146.6,570.1,1146.6,569.9,1153,574.2z"/>
			<path class="st0" d="M175,300.5c6.5-1.7,12.1-3.3,18.4-4.9c2.5-10.7,15.7-2.3,21.6-8.8c5.4,5.3,8.7,5.2,17.3-0.8
				c0.4-0.3,1-0.1,1.5-0.2c4.3-0.9,8.6-2,13-2.5c1.3-0.1,2.7,1.5,6.7,3.9c-6.9,1.1-11.4,1.8-15.9,2.4
				C217.7,295.3,199.8,311,175,300.5z"/>
			<path class="st0" d="M1258.3,476.8c-5.6-0.5-9.4-0.8-13.2-1.1c-0.2,0.7-0.4,1.4-0.6,2c1.2,0.8,2.4,1.7,3.7,2.6
				c-0.3,0.3-0.7,0.7-1.1,0.8c-7.2,0.3-13.3-1.9-20.1-4.5c-9.2-3.5-20.3-2-30.6-2.6c-6.1-0.4-12.1-0.7-18.2-1.1c0-0.8,0-1.7,0-2.5
				c7.8,0,15.6,0.2,23.4-0.2c1.1,0,1.9-2.9,3.3-3.7c1.4-0.7,4.8-0.6,4.8-0.5c1.2,7.7,6.2,5.2,10.9,4.5c3.3-0.5,6.9,0.2,10.9,0.4
				c-0.3-0.8-1-2.3-1.7-4c3.3,0.6,7.2,0.3,9.3,2c4.7,4.2,7.5,3,11.6-0.9c1.3-1.2,6.5,1.9,10.4,3.2
				C1259.8,474,1258.6,476.3,1258.3,476.8z"/>
			<path class="st0" d="M1537.9,347.5c-1,5-2.9,5.9-8.7,4.7c-8.1-1.6-16.8-0.4-24.1-0.4c0.7-3.4,1.5-7.4,2.1-10.2
				c4.9-0.5,9.8-1.3,14.7-1.4c10.2-0.2,20.5-0.2,30.7,0.2c1.4,0.1,2.6,3,5,5.9C1549.8,346.7,1543.9,347.1,1537.9,347.5z"/>
			<path class="st0" d="M845.3,540.9c-2.7-0.7-4-1-5.6-1.4c0.6-0.5,1-1.1,1.3-1c2.3,0.3,6.3,0.5,6.4,1.2c1.2,9.7,8.9,6.5,14.4,7.8
				c1,0.2,1.9,1.2,2.4,3.5c-9.2-1.1-18.4-2.1-28.1-3.2c-2.3,6.5-8.6-1.1-13.6,2.1c2.7-20.3-12-6.3-18.3-11.1
				c1.5-0.7,2.5-1.2,3.6-1.7c-0.4-0.6-0.7-1.2-1.1-1.8c-2.7,1.5-5.3,3.1-8,4.6c-0.4-0.6-0.8-1.2-1.2-1.9c3.1-2,6.2-5.7,9.2-5.7
				c8,0,16.1,1.5,24.1,2.7c1,0.2,2,1.7,2.8,2.7C837.6,543.1,837.6,543.2,845.3,540.9z"/>
			<path class="st0" d="M1495.5,104.3h10.4c-0.4,3.7-1,7.2-1.2,10.6c-0.2,2.8,0.2,5.5,0.4,10.3c-5.2,3.4-12.9,8.5-20.7,13.6
				c-0.7-0.8-0.5-0.6-1.3-1.3c2.7-3.6,5.4-7.3,8.1-11c-6.9,3.8-12.3,10.8-21.4,7.2C1480.2,125.9,1495.5,122.3,1495.5,104.3z"/>
			<path class="st0" d="M187.8,329.1c-0.9-2.6-1.8-5.2-1.9-5.6c7.9-2.9,14.7-5.6,21.7-7.7c1.8-0.5,4.4,0.8,6.1,1.9
				c0.7,0.4,0.1,2.8,0.1,5.1c3.7-2.8,6.7-6.5,10.4-7.6c4.6-1.4,9.9-0.8,15.1,0.8c-3,1.2-5.9,2.4-10.2,4.2c2.8,1.2,4.6,2,6.9,2.9
				c-2.2,0.9-4.1,2.2-6.1,2.5c-7.8,1.4-15.6,3.1-23.5,3.4c-5.5,0.3-11.1-1.4-16.7-2.2C188.9,327.5,188.4,328.3,187.8,329.1z"/>
			<path class="st0" d="M912.1,154.1c-15.1,16.1-31.8,6.2-48.2,3.6c6.5-1.5,11.2-6.2,20-3.1C892.1,157.6,902.5,154.5,912.1,154.1z"
				/>
			<path class="st0" d="M280.5,479.4c-5.4-0.2-9.2-2.7-9.2-8.5s0.5-13,8.3-12.4c3.4,0.3,8.5,5.9,8.9,9.4
				C288.9,472,290.1,480.4,280.5,479.4z"/>
			<path class="st0" d="M933.6,601.9c-5.8,0.1-8.3,2.9-11.8,7.5c-3.5,4.5-13,4.4-19.8,6.4c-0.3-1.1-0.5-2.2-0.8-3.3
				c2.9-0.4,5.9-0.8,11.2-1.5c-7.5-2.4-12.9-4.2-16.9-5.5C906.1,595.3,919.9,600.9,933.6,601.9z"/>
			<path class="st0" d="M1409.5,523c-22.5,2.8-45.1,5.7-67.6,8.5c-0.2-1.5-0.4-3-0.5-4.5c22.5-2.6,45.1-5.1,67.6-7.7
				C1409.1,520.6,1409.3,521.8,1409.5,523z"/>
			<path class="st0" d="M120.4,302c1.9,2.7,3.7,5.4,6.5,9.5c-10.6,0.8-20.4,1.5-31,2.2C101.3,300.7,111.3,300.6,120.4,302z"/>
			<path class="st0" d="M163.3,162.5c-8.9,1.4-17.8,2.8-26.8,4.2c-1.8-11.9,0.1-13.9,8.8-12.1c6.1,1.2,12.1,2.8,18.2,4.1
				C163.5,160,163.4,161.3,163.3,162.5z"/>
			<path class="st0" d="M751.5,614.6c1.1,0.1,2.3,0.2,3.4,0.3c0-11.2,7.2-6.7,12.5-5.5c5.7,1.2,11.3,3,17,4.6c-0.2,1-0.3,2-0.5,3
				c-4.4,0-9.5-1.5-13,0.3c-6.5,3.3-11.9,0.5-17.8-0.5c-0.6-0.1-1-1.5-1.4-2.3L751.5,614.6z"/>
			<path class="st0" d="M1774,278.5c0.5,10.5-6.8,13.8-12.5,16.2c-2.8,1.2-8.2-3.5-12.5-5.5c0.2-0.9,0.4-1.8,0.6-2.7
				C1757.4,283.9,1765.2,281.4,1774,278.5z"/>
			<path class="st0" d="M1454.9,521.4c-14,1.2-28,2.5-44.1,3.9c2.7-2.5,4.4-5.5,6.2-5.5c12.6-0.2,25.2-3.4,37.8-2
				C1454.9,519,1454.9,520.2,1454.9,521.4z"/>
			<path class="st0" d="M352,97.5c-1.5-4.8-2.4-9.9-4.6-14.4c-2.7-5.3-6.6-10-8.9-16.6c1.5,0.7,3,1.2,4.3,2c2.8,1.8,5.9,3.4,8.2,5.8
				c1.9,1.9,3.8,4.8,4,7.3c0.3,4.6-0.8,9.4-1.3,14.1C353.1,96.3,352.5,96.9,352,97.5z"/>
			<path class="st0" d="M1428,416.5c-10.3-0.8-20.6-1.7-31.8-2.6c6.7-7.8,14.8-6.9,22.5-6.1c1,0.1,1.6,3.3,2.6,5.5
				c1.7,0,4.1,0,6.5,0C1427.8,414.4,1427.9,415.4,1428,416.5z"/>
			<path class="st0" d="M751.7,614.4c-8,1.9-16.1,3.9-24.7,5.9c0-3.3,0-4.7,0-6.8c-2.7,1.9-4.8,3.5-8.1,5.8
				c0.8-4.3,1.5-7.7,2.2-11.7c4.3,1.4,8,3,11.9,3.9c6.1,1.3,12.3,2.1,18.4,3C751.5,614.6,751.7,614.4,751.7,614.4z"/>
			<path class="st0" d="M1442,513.9c-0.1-0.6-0.3-2.6-0.8-6.6h40.2c0.1,1.5,0.1,0.9,0.1,2.4C1468.9,511,1456.1,512.4,1442,513.9z"/>
			<path class="st0" d="M1532.8,499.2c-12.7,2.8-25.4,5.5-40.3,8.7c5.3-6.3,5.5-5,10.9-5.7c6.7-0.8,13-4.1,19.6-6.2
				c1.4-0.5,2.9-0.5,4.3-0.7C1529.1,496.6,1531,497.9,1532.8,499.2z"/>
			<path class="st0" d="M1813.8,206.6c-11.8,5.8-22.1,9.1-33.3,2.1c5-1.5,10-3.9,15.1-4.2C1801,204.1,1806.5,205.6,1813.8,206.6z"/>
			<path class="st0" d="M1291.4,481.5c1.7-0.2,3.4-0.4,7.6-0.9c-8.7-2.4-15.2-4.2-21.6-6c0-0.3,0-0.6,0-0.9
				c7.3,0.7,14.9,0.3,21.7,2.5c4.6,1.5,8,6.6,13.7,11.6c-9-2-15.7-3.4-22.3-4.8C1290.8,482.5,1291.1,482,1291.4,481.5z"/>
			<path class="st0" d="M1381.2,337.6c3.6,4.4,7.1,8.8,10.7,13.2c-0.6,1.2-0.6,1.3-1.2,2.5h-17.2c2.9-5.8,5.4-10.8,7.9-15.9
				C1381.4,337.4,1381.2,337.6,1381.2,337.6z"/>
			<path class="st0" d="M1248.6,602.2c7.2,3,14.4,6,21.6,9.1c1.6,0.7,3,1.5,4.6,2.1c4.9,1.8,9.8,3.6,14.6,5.4
				c-0.4,1.2-0.9,2.4-1.3,3.6c-13.5-5.9-27-11.8-40.5-17.7C1248,603.8,1248.3,603,1248.6,602.2z"/>
			<path class="st0" d="M224.6,251.8c-9.5,0.9-17,10.6-27.6,6.6c-0.3-1-0.5-2.1-0.8-3.1c9.1-2.6,18.2-5.1,27.4-7.7
				C224,249,224.3,250.4,224.6,251.8z"/>
			<path class="st0" d="M1221.3,608.3c2.6-0.7,5.4-2.5,7.6-1.8c8.1,2.4,16,5.7,23.9,8.7c0.4,0.2,0.8,0.7,2.2,2.2
				c-12-2.2-22.7-4.1-33.5-6C1221.5,610.3,1221.4,609.3,1221.3,608.3z"/>
			<path class="st0" d="M1011.9,514.1c-3.7-0.8-6.3-1.3-8.8-1.8c0.1-0.8,0.2-1.6,0.4-2.4c5.8,0.5,11.5,1.1,16.2,1.5
				c-0.9,4.5-1.5,7.9-2.4,12.2c-0.4-0.3-2.4-1.6-4.4-3.1s-4-3.2-6.2-4.9C1007.8,515.4,1009.3,514.9,1011.9,514.1z"/>
			<path class="st0" d="M1077.7,551.5c-7.3,12.7-16.1-2.4-23.4,3.2C1058.4,548.5,1068.6,547.5,1077.7,551.5z"/>
			<path class="st0" d="M714.3,613.1c-10.2-0.5-20.6,0.4-30.8-8.7c11.7,2.1,21.5,3.8,31.3,5.6C714.7,611,714.5,612.1,714.3,613.1z"
				/>
			<path class="st0" d="M1532.8,499.2c-1.8-1.3-3.7-2.6-5.5-4c-3.3-3.5-3.2-6.7,1.5-8.5c3.1-1.2,6.6-1.6,10.8-2.5
				C1537,489.9,1534.9,494.6,1532.8,499.2z"/>
			<path class="st0" d="M926.4,608.5c10,0.2,19.3-8.7,26.3,2.3c-3,0.3-6.6,0.7-10.2,1.1c0.7,0.8,1.4,1.7,3.5,4.4
				C938.8,613.4,933.4,611.3,926.4,608.5z"/>
			<path class="st0" d="M708,114.6c-20-3.1-20-3.1-18.8-11.9C694.8,106.2,700.4,109.7,708,114.6z"/>
			<path class="st0" d="M690.9,52.3c0.9,3.8,1.6,6.8,2.5,10.3c-4.8-1.4-9.2-2.6-14.2-4C679.6,50.2,685.8,52.8,690.9,52.3z"/>
			<path class="st0" d="M892.1,623.2c-10.4-1.2-20.8-2.5-31.2-3.7c0.2-1.2,0.3-2.4,0.5-3.6c10.2,1.7,20.4,3.3,30.6,5
				C892.1,621.6,892.1,622.4,892.1,623.2z"/>
			<path class="st0" d="M1083.4,618.3c8.6,0,17.2,0,25.7,0C1100.7,626.6,1092.1,622.5,1083.4,618.3z"/>
			<path class="st0" d="M755.1,628.4c8.6-3.9,13.1-2.3,16.8,7.5c-6.4-1.8-11.7-3.2-16.9-4.7C755,630.3,755.1,629.4,755.1,628.4z"/>
			<path class="st0" d="M268.4,392.3c4-0.5,8-1,14.7-1.8c-3.9,4.6-5.9,8.5-8.9,9.9c-1.4,0.6-5-3.5-7.6-5.5
				C267.2,393.9,267.8,393.1,268.4,392.3z"/>
			<path class="st0" d="M1275.2,418.2c7.4,0.8,14.9,1.7,22.3,2.5c0.1,0.8,0.2,1.6,0.3,2.4c-6.6,0.7-13.1,1.4-19.7,2.1
				c-0.1-0.8-0.3-1.6-0.4-2.3c1.6-0.4,3.3-0.8,7.6-1.9c-5.2-0.5-7.7-0.7-10.3-0.9C1275,419.5,1275.1,418.9,1275.2,418.2z"/>
			<path class="st0" d="M1328.8,493c-6.3,2.6-12.5,5.2-18.8,7.8c-0.4-1.1-0.8-2.2-1.2-3.3c4-0.9,8-1.7,12.4-2.7
				c-2.3-1.7-4.1-3-6-4.4c1.5-0.5,3-1.4,4.4-1.3c2.8,0.2,5.5,1.1,8.3,1.7C1328.2,491.5,1328.5,492.3,1328.8,493z"/>
			<path class="st0" d="M1316.6,393c6.1-1,12.2-2,18.3-2.7c0.8-0.1,2.1,1.4,2.6,2.4c0.2,0.6-0.9,1.7-1.5,2.6
				c-0.9-0.6-1.8-1.5-2.8-1.8c-1.3-0.3-3.5-0.8-4.1-0.1C1324.6,398,1324.7,398.1,1316.6,393z"/>
			<path class="st0" d="M350.3,507c-2.6,3.3-4,5.1-5.4,6.9c-3-2.5-6-5-9-7.5c1.1-1,2.4-2.9,3.2-2.7
				C342.5,504.3,345.8,505.6,350.3,507z"/>
			<path class="st0" d="M328.7,498.6c-4.1-1.3-7.2-1.8-9.9-3.2c-2.3-1.1-4.2-3.1-6.3-4.8c0.7-0.8,1.6-2.3,2.1-2.2
				c3.5,0.9,7,1.8,10.1,3.5C326.3,493,326.9,495.6,328.7,498.6z"/>
			<path class="st0" d="M1186.6,614.3c8.1,0,14,0,20,0c2.1,9.1-5.7,4.6-8.1,4.7C1195.2,619.2,1191.7,616.5,1186.6,614.3z"/>
			<path class="st0" d="M1492.6,520.9c-5.9,0.9-11.8,1.8-17.6,2.7c-0.2-1.4-0.4-2.8-0.6-4.2c5.9-0.7,11.9-1.4,17.8-2.2
				C1492.3,518.4,1492.5,519.7,1492.6,520.9z"/>
			<path class="st0" d="M896.2,552.1c-9.3-2.5-16.1-4.4-22.9-6.2c0.1-0.4,0.2-0.8,0.3-1.3c3.5-0.6,6.9-1.2,11-1.8
				C887,544.8,890.6,547.6,896.2,552.1z"/>
			<path class="st0" d="M1280.5,411.5c1.4-2.5,2.8-5.1,4.3-8c-0.8-0.4-2.6-1.2-4.3-2.1c0.2-0.6,0.4-1.1,0.6-1.7
				c3.6,1.1,7.3,2.2,11.8,3.5c-2.1,0.9-3.1,1.3-4.4,1.9c1.2,0.7,2.3,1.3,3.1,1.7c-2.9,1.9-5.9,3.9-8.8,5.9
				C1282,412.3,1281.3,411.9,1280.5,411.5z"/>
		</g>
	</g>
</g>
<g>
	<g>
		
			<image style="overflow:visible;opacity:0.75;enable-background:new    ;" width="280" height="177" xlink:href="DFE032F9.png"  transform="matrix(1 0 0 1 0 298.2943)">
		</image>
		<g>
			<path class="st1" d="M229.7,309.5c1.6-1.1,2.7-1.7,3.5-1.7c1.1,0,4.1,1.9,9.1,5.6s8.3,6.7,10.1,8.8l3.3,4.6l-3.7,1.7
				c-2.8,1.1-4.3,1.7-4.4,1.7l-9.4,5.5c-4.5,2.9-8.3,4.3-11.5,4.3c-1.6,0-2.9-0.1-4-0.3c-0.9-0.2-2.2-0.3-3.7-0.3
				c-2,0-3.7,0.6-4.9,1.7c-1.9,2.3-19,14-51.5,35.1c-34.1,22.8-51.2,34.4-51.2,34.6c0,0.8,5,1.2,15,1.2c14.5,0,32.3-0.6,53.4-1.7
				c21.1-1.2,32.9-2.3,35.2-3.5c1.9-0.8,3-1.2,3.5-1.2c1.4,0,3.8,1.7,7.3,5.2c3.7,3.6,5.9,5.5,6.6,5.5l0.5-0.3c0.5,0,1,0,1.5-0.1
				s1.1-0.1,1.8-0.1c2.3,0,3.7,1.6,4.2,4.9v1.7c0,2.7-1.6,6.4-4.9,11.2c-3.3,5-6.1,7.5-8.4,7.5c-0.3,0-0.8,0-1.4-0.1
				c-0.6-0.1-1.2-0.1-1.6-0.1h-3.3c-13.1,0-44,1.4-92.8,4.3c-48.7,2.9-73.8,4.8-75.2,5.8c-0.6,0.6-1.5,0.9-2.6,0.9
				c-1.7,0-4.9-1-9.6-2.9c-6.1-2.5-9.1-4.2-9.1-5.2c0-1.2-0.8-1.7-2.3-1.7c-2,0-5.7-1.6-11-4.9s-7.9-5.5-7.9-6.6
				c0-2.3,1.8-3.5,5.4-3.5c1.7,0,3.2,0.4,4.4,1.2c0.6,0.6,1.6,0.9,2.8,0.9c2.2,0,6.9-1.7,14.3-5.2l14-6.6l7.3,4.9
				c4,2.5,6.9,3.7,8.4,3.7c0.3,0,0.5-0.1,0.5-0.3c0-0.8-1.7-2.4-5.2-4.9c-4.2-3.1-6.3-5.4-6.3-6.9c0-0.8,0.5-1.7,1.6-2.9
				c0.9-0.8,24.2-14.7,69.7-41.8c46.2-27.1,73.1-43.4,80.7-49c8.6-6,14-8.9,16.4-8.9C226.2,311.2,228.1,310.6,229.7,309.5z
				 M79,444.1l3-0.3H66.6H51.4c0.6,0.2,1.6,0.3,2.8,0.3c1.1,0,3,0,5.8,0.1s5,0.1,6.5,0.1c1.6,0,3.8,0,6.7-0.1
				C76.2,444.1,78.1,444.1,79,444.1z M128.9,417.9c1.1,0.6,1.9,0.5,2.6-0.3c0.3-0.6,0.2-0.9-0.5-0.9c-0.3,0-0.7,0-1.2,0
				c-0.8,0-1.3,0.1-1.5,0.3C128,417.3,128.2,417.6,128.9,417.9z"/>
			<path class="st2" d="M229.7,309.5c1.6-1.1,2.7-1.7,3.5-1.7c1.1,0,4.1,1.9,9.1,5.6s8.3,6.7,10.1,8.8l3.3,4.6l-3.7,1.7
				c-2.8,1.1-4.3,1.7-4.4,1.7l-9.4,5.5c-4.5,2.9-8.3,4.3-11.5,4.3c-1.6,0-2.9-0.1-4-0.3c-0.9-0.2-2.2-0.3-3.7-0.3
				c-2,0-3.7,0.6-4.9,1.7c-1.9,2.3-19,14-51.5,35.1c-34.1,22.8-51.2,34.4-51.2,34.6c0,0.8,5,1.2,15,1.2c14.5,0,32.3-0.6,53.4-1.7
				c21.1-1.2,32.9-2.3,35.2-3.5c1.9-0.8,3-1.2,3.5-1.2c1.4,0,3.8,1.7,7.3,5.2c3.7,3.6,5.9,5.5,6.6,5.5l0.5-0.3c0.5,0,1,0,1.5-0.1
				s1.1-0.1,1.8-0.1c2.3,0,3.7,1.6,4.2,4.9v1.7c0,2.7-1.6,6.4-4.9,11.2c-3.3,5-6.1,7.5-8.4,7.5c-0.3,0-0.8,0-1.4-0.1
				c-0.6-0.1-1.2-0.1-1.6-0.1h-3.3c-13.1,0-44,1.4-92.8,4.3c-48.7,2.9-73.8,4.8-75.2,5.8c-0.6,0.6-1.5,0.9-2.6,0.9
				c-1.7,0-4.9-1-9.6-2.9c-6.1-2.5-9.1-4.2-9.1-5.2c0-1.2-0.8-1.7-2.3-1.7c-2,0-5.7-1.6-11-4.9s-7.9-5.5-7.9-6.6
				c0-2.3,1.8-3.5,5.4-3.5c1.7,0,3.2,0.4,4.4,1.2c0.6,0.6,1.6,0.9,2.8,0.9c2.2,0,6.9-1.7,14.3-5.2l14-6.6l7.3,4.9
				c4,2.5,6.9,3.7,8.4,3.7c0.3,0,0.5-0.1,0.5-0.3c0-0.8-1.7-2.4-5.2-4.9c-4.2-3.1-6.3-5.4-6.3-6.9c0-0.8,0.5-1.7,1.6-2.9
				c0.9-0.8,24.2-14.7,69.7-41.8c46.2-27.1,73.1-43.4,80.7-49c8.6-6,14-8.9,16.4-8.9C226.2,311.2,228.1,310.6,229.7,309.5z
				 M79,444.1l3-0.3H66.6H51.4c0.6,0.2,1.6,0.3,2.8,0.3c1.1,0,3,0,5.8,0.1s5,0.1,6.5,0.1c1.6,0,3.8,0,6.7-0.1
				C76.2,444.1,78.1,444.1,79,444.1z M128.9,417.9c1.1,0.6,1.9,0.5,2.6-0.3c0.3-0.6,0.2-0.9-0.5-0.9c-0.3,0-0.7,0-1.2,0
				c-0.8,0-1.3,0.1-1.5,0.3C128,417.3,128.2,417.6,128.9,417.9z"/>
		</g>
	</g>
	<g>
		
			<image style="overflow:visible;opacity:0.75;enable-background:new    ;" width="210" height="262" xlink:href="DFE032FF.png"  transform="matrix(1 0 0 1 273 254.2943)">
		</image>
		<g>
			<path class="st1" d="M376.8,270.1c5.8-4,9.3-6,10.5-6.3h0.2c1.3,0.8,1.9,4.6,1.9,11.5c0,4.6-0.4,10.8-1.2,18.4
				c-0.5,4.4-0.7,7.9-0.7,10.4c0,5,0.9,8.9,2.8,11.8c0.1,0.2,1.8-0.5,4.9-2c2.2-1.1,3.4-2,3.5-2.5s-0.3-1.4-1.4-2.7
				c-1.4-2.1-2.7-3.2-4-3.2c-0.3,0-0.5-0.1-0.5-0.3c0-1.1,6.2-7.7,18.5-19.6l14-13.9h33l-2.8,4.4c-2.8,4-21.7,31.8-56.6,83.2
				c-35.7,53-54.4,79.5-56.1,79.5c-1.9,0-7,2.8-15.4,8.3c-6.1,3.8-10.5,7.2-13.1,10.1s-7,8.6-13.1,17.3
				c-8.6,12.5-13.8,18.7-15.7,18.7c-1.9,0-2.8-0.5-2.8-1.4c0-0.4,9.2-14.4,27.5-42c18.3-27.7,36.8-55.5,55.3-83.5l28.1-42
				c0.1-0.4,0.1-0.6-0.2-0.6c-0.6,0-2,1-4.2,2.9c-2.3,1.7-4.1,2.6-5.4,2.6c-2.3,0-6-3.4-11-10.1c-4.7-6.3-7-12.6-7-18.7
				c0-2.7,0.2-6.3,0.7-10.9l0.9-12.7L376.8,270.1z M403.3,302.1c0.5,0,0.7-0.3,0.7-0.9s-0.2-0.9-0.7-0.9s-0.7,0.3-0.7,0.9
				S402.8,302.1,403.3,302.1z"/>
			<path class="st2" d="M376.8,270.1c5.8-4,9.3-6,10.5-6.3h0.2c1.3,0.8,1.9,4.6,1.9,11.5c0,4.6-0.4,10.8-1.2,18.4
				c-0.5,4.4-0.7,7.9-0.7,10.4c0,5,0.9,8.9,2.8,11.8c0.1,0.2,1.8-0.5,4.9-2c2.2-1.1,3.4-2,3.5-2.5s-0.3-1.4-1.4-2.7
				c-1.4-2.1-2.7-3.2-4-3.2c-0.3,0-0.5-0.1-0.5-0.3c0-1.1,6.2-7.7,18.5-19.6l14-13.9h33l-2.8,4.4c-2.8,4-21.7,31.8-56.6,83.2
				c-35.7,53-54.4,79.5-56.1,79.5c-1.9,0-7,2.8-15.4,8.3c-6.1,3.8-10.5,7.2-13.1,10.1s-7,8.6-13.1,17.3
				c-8.6,12.5-13.8,18.7-15.7,18.7c-1.9,0-2.8-0.5-2.8-1.4c0-0.4,9.2-14.4,27.5-42c18.3-27.7,36.8-55.5,55.3-83.5l28.1-42
				c0.1-0.4,0.1-0.6-0.2-0.6c-0.6,0-2,1-4.2,2.9c-2.3,1.7-4.1,2.6-5.4,2.6c-2.3,0-6-3.4-11-10.1c-4.7-6.3-7-12.6-7-18.7
				c0-2.7,0.2-6.3,0.7-10.9l0.9-12.7L376.8,270.1z M403.3,302.1c0.5,0,0.7-0.3,0.7-0.9s-0.2-0.9-0.7-0.9s-0.7,0.3-0.7,0.9
				S402.8,302.1,403.3,302.1z"/>
		</g>
	</g>
	<g>
		
			<image style="overflow:visible;opacity:0.75;enable-background:new    ;" width="213" height="323" xlink:href="DFE032F8.png"  transform="matrix(1 0 0 1 477 154.2943)">
		</image>
		<g>
			<path class="st1" d="M657.6,171.9c4.4-5.4,7.3-8.1,8.9-8.1h0.2c0.6,0.8-1.9,6.7-7.5,17.9l-8.7,16.1v14.1l-0.2,14.1L637,246.7
				c-2.5,3.8-6.9,10.9-13.3,21c-6.4,10.2-10.8,17.2-13.3,21l-13.3,21l12.9,0.9c6.2,0.6,14.7,1.1,25.3,1.4l11.9,0.3l3.7,9.8l3.7,10.9
				c0,1-2.1,3.4-6.3,7.2c-1.1,1-4.6,4.2-10.6,9.6c-6,5.5-14.5,13.2-25.6,23.2s-21,19-29.9,27.1l-59.4,53.6L504.5,441
				c-12-8.5-18.1-13.9-18.3-16.4c0-2.7,13.3-23.9,40-63.6c0.8-1.1,3.4-5.1,7.8-11.8c4.4-6.7,10.5-15.8,18-27.2
				c7.6-11.4,14.7-22.2,21.4-32.4c20.9-31.9,33.5-50.6,37.8-56.3s8.6-9.6,13-12c4.4-2.1,7.3-4.1,8.8-6s4.3-7.3,8.5-16.1
				C647.2,187.1,652.6,178,657.6,171.9z M521.1,377.2c0-0.6-0.3-0.9-0.9-0.9c-0.5,0-0.7,0.3-0.7,0.9s0.2,0.9,0.7,0.9
				C520.8,378.1,521.1,377.8,521.1,377.2z M523.3,378.1c0.5,0,0.7-0.3,0.7-0.9s-0.2-0.9-0.7-0.9s-0.7,0.3-0.7,0.9
				S522.8,378.1,523.3,378.1z M532.4,359.7c0-1.5-0.4-2.4-1.2-2.6c-0.9,0.4-1.7,1.4-2.3,2.9c-0.6,1.9-0.8,3.1-0.6,3.5s0.9,0.3,2-0.3
				C531.7,362.3,532.4,361.2,532.4,359.7z M598.8,338c-3.6,0-8-0.4-13.3-1.1l-7.3-1.1c-3.3,5-8.3,12.3-15.2,21.9l-12.2-0.9
				c-5.6-0.4-8.8-0.6-9.6-0.6c-3.6,0-5.4,0.7-5.4,2c0,0.6,0.2,1.4,0.7,2.3c0.9,2.5,4.8,3.8,11.5,4l10.1,0.6l-2.8,4.6
				c-2,3.1-6,4.8-11.9,5.2c-6.4,0.4-9.6,1.4-9.6,3.2c0,1.2,2.1,1.7,6.3,1.7c4.4,0,6.5,0.4,6.5,1.2c0,1-2,4.2-5.8,9.8
				c-3.6,5.2-5.4,8.3-5.4,9.2c0,0.2,0.6-0.1,1.9-1c1.3-0.9,2.8-2.1,4.8-3.7s3.9-3.3,6-5c8-6.9,13.6-10.4,16.8-10.4
				c1.1,0,1.9,0,2.5,0c0.5,0,0.9-0.2,1.2-0.6c0.2-0.4,0.4-0.6,0.5-0.7s0.1-0.5,0-1.3s-0.1-1.3-0.1-1.7c0-2.9,2-5.8,6-8.8
				s7.9-4.5,11.8-4.5c4.5,0,6.8-0.9,6.8-2.6c0-1.5-0.8-2.9-2.3-4c-0.5-0.4-0.7-0.8-0.7-1.1c0-1,2.1-3.3,6.3-6.9c5.3-4.4,8-7.2,8-8.4
				C604.7,338.4,602.7,338,598.8,338z M555.8,341.5c4.2,0,6.3-0.6,6.3-1.7s-2.1-1.7-6.3-1.7s-6.3,0.6-6.3,1.7
				S551.6,341.5,555.8,341.5z M594.6,328.3c0.5,0.4,1,0.4,1.5,0.1s0.8-0.8,0.8-1.4c0-0.7-0.2-1.3-0.7-1.9c-0.5-0.4-1-0.4-1.5-0.1
				s-0.8,0.8-0.8,1.4C593.9,327.1,594.1,327.7,594.6,328.3z M598.3,357.1c-0.5-1.1-1-1.7-1.6-1.7s-0.2,1,1.2,2.9
				c0.2,0.4,0.3,0.6,0.5,0.6C599,358.8,599,358.2,598.3,357.1z M598.3,362.2c0.5,0,0.7-0.3,0.7-0.9s-0.2-0.9-0.7-0.9
				s-0.7,0.3-0.7,0.9C597.6,362,597.9,362.2,598.3,362.2z M604.7,360.8c0-1.1-0.7-2.4-2.1-3.7c-0.6-0.6-1.1-0.9-1.4-1
				c-0.3-0.1-0.5,0-0.6,0.4s-0.1,1.1-0.1,2.3c0,2.3,0.7,3.5,2.1,3.5S604.7,361.8,604.7,360.8z M615,356.5c0.5,0.6,1,0.7,1.6,0.3
				c0.5-0.6,0.3-1-0.5-1.4C615.3,355.5,615,355.9,615,356.5z"/>
			<path class="st2" d="M657.6,171.9c4.4-5.4,7.3-8.1,8.9-8.1h0.2c0.6,0.8-1.9,6.7-7.5,17.9l-8.7,16.1v14.1l-0.2,14.1L637,246.7
				c-2.5,3.8-6.9,10.9-13.3,21c-6.4,10.2-10.8,17.2-13.3,21l-13.3,21l12.9,0.9c6.2,0.6,14.7,1.1,25.3,1.4l11.9,0.3l3.7,9.8l3.7,10.9
				c0,1-2.1,3.4-6.3,7.2c-1.1,1-4.6,4.2-10.6,9.6c-6,5.5-14.5,13.2-25.6,23.2s-21,19-29.9,27.1l-59.4,53.6L504.5,441
				c-12-8.5-18.1-13.9-18.3-16.4c0-2.7,13.3-23.9,40-63.6c0.8-1.1,3.4-5.1,7.8-11.8c4.4-6.7,10.5-15.8,18-27.2
				c7.6-11.4,14.7-22.2,21.4-32.4c20.9-31.9,33.5-50.6,37.8-56.3s8.6-9.6,13-12c4.4-2.1,7.3-4.1,8.8-6s4.3-7.3,8.5-16.1
				C647.2,187.1,652.6,178,657.6,171.9z M521.1,377.2c0-0.6-0.3-0.9-0.9-0.9c-0.5,0-0.7,0.3-0.7,0.9s0.2,0.9,0.7,0.9
				C520.8,378.1,521.1,377.8,521.1,377.2z M523.3,378.1c0.5,0,0.7-0.3,0.7-0.9s-0.2-0.9-0.7-0.9s-0.7,0.3-0.7,0.9
				S522.8,378.1,523.3,378.1z M532.4,359.7c0-1.5-0.4-2.4-1.2-2.6c-0.9,0.4-1.7,1.4-2.3,2.9c-0.6,1.9-0.8,3.1-0.6,3.5s0.9,0.3,2-0.3
				C531.7,362.3,532.4,361.2,532.4,359.7z M598.8,338c-3.6,0-8-0.4-13.3-1.1l-7.3-1.1c-3.3,5-8.3,12.3-15.2,21.9l-12.2-0.9
				c-5.6-0.4-8.8-0.6-9.6-0.6c-3.6,0-5.4,0.7-5.4,2c0,0.6,0.2,1.4,0.7,2.3c0.9,2.5,4.8,3.8,11.5,4l10.1,0.6l-2.8,4.6
				c-2,3.1-6,4.8-11.9,5.2c-6.4,0.4-9.6,1.4-9.6,3.2c0,1.2,2.1,1.7,6.3,1.7c4.4,0,6.5,0.4,6.5,1.2c0,1-2,4.2-5.8,9.8
				c-3.6,5.2-5.4,8.3-5.4,9.2c0,0.2,0.6-0.1,1.9-1c1.3-0.9,2.8-2.1,4.8-3.7s3.9-3.3,6-5c8-6.9,13.6-10.4,16.8-10.4
				c1.1,0,1.9,0,2.5,0c0.5,0,0.9-0.2,1.2-0.6c0.2-0.4,0.4-0.6,0.5-0.7s0.1-0.5,0-1.3s-0.1-1.3-0.1-1.7c0-2.9,2-5.8,6-8.8
				s7.9-4.5,11.8-4.5c4.5,0,6.8-0.9,6.8-2.6c0-1.5-0.8-2.9-2.3-4c-0.5-0.4-0.7-0.8-0.7-1.1c0-1,2.1-3.3,6.3-6.9c5.3-4.4,8-7.2,8-8.4
				C604.7,338.4,602.7,338,598.8,338z M555.8,341.5c4.2,0,6.3-0.6,6.3-1.7s-2.1-1.7-6.3-1.7s-6.3,0.6-6.3,1.7
				S551.6,341.5,555.8,341.5z M594.6,328.3c0.5,0.4,1,0.4,1.5,0.1s0.8-0.8,0.8-1.4c0-0.7-0.2-1.3-0.7-1.9c-0.5-0.4-1-0.4-1.5-0.1
				s-0.8,0.8-0.8,1.4C593.9,327.1,594.1,327.7,594.6,328.3z M598.3,357.1c-0.5-1.1-1-1.7-1.6-1.7s-0.2,1,1.2,2.9
				c0.2,0.4,0.3,0.6,0.5,0.6C599,358.8,599,358.2,598.3,357.1z M598.3,362.2c0.5,0,0.7-0.3,0.7-0.9s-0.2-0.9-0.7-0.9
				s-0.7,0.3-0.7,0.9C597.6,362,597.9,362.2,598.3,362.2z M604.7,360.8c0-1.1-0.7-2.4-2.1-3.7c-0.6-0.6-1.1-0.9-1.4-1
				c-0.3-0.1-0.5,0-0.6,0.4s-0.1,1.1-0.1,2.3c0,2.3,0.7,3.5,2.1,3.5S604.7,361.8,604.7,360.8z M615,356.5c0.5,0.6,1,0.7,1.6,0.3
				c0.5-0.6,0.3-1-0.5-1.4C615.3,355.5,615,355.9,615,356.5z"/>
		</g>
	</g>
	<g>
		
			<image style="overflow:visible;opacity:0.75;enable-background:new    ;" width="248" height="209" xlink:href="DFE032F6.png"  transform="matrix(1 0 0 1 958 269.2943)">
		</image>
		<g>
			<path class="st1" d="M1018.3,289.7c1.6-4.2,2.8-7.1,3.9-8.5c1-1.4,2.1-2.2,3.4-2.2c0.9,0,8.9,0.6,23.9,1.7
				c11.2,1.1,23.1,1.7,35.6,1.7c9.4,0.2,26.2,1.1,50.4,2.7s36.6,2.7,37.1,3.3c0.3,0.2,2.3,4,6.1,11.5c2.8,5.6,4.2,9.3,4.2,11.2
				c0,0.8-0.2,1.4-0.5,1.7c-1.4,1.7-13.8,7.2-37.2,16.4c-22.3,8.8-35,14.4-38.1,16.7c-1.7,1.1-5.3,2.9-10.8,5.2
				c-5.9,2.1-8.9,3.5-8.9,4.3c0,1,3.6,3.3,10.6,6.9c7.1,3.7,11.5,5.5,13.2,5.5c0.6,0,9.9,4.1,27.7,12.4
				c17.8,8.3,26.8,12.8,26.8,13.5c0,1.3-4.2,6.9-12.5,16.6s-13.1,14.5-14.4,14.5c-0.3,0-0.9-0.1-1.9-0.4c-0.9-0.3-2.1-0.7-3.6-1.3
				c-1.5-0.6-2.7-1-3.6-1.2c-17.3-5.4-26-8.6-26-9.8c0-0.6,4-1.4,11.9-2.6c7.8-1.2,12.9-2.1,15.3-2.9s3.6-1.9,3.6-3.5
				c0-1.2-1.1-1.7-3.3-1.7c-2.2,0-4.1,0.1-5.6,0.3c-1.7,0.2-4.6,0.5-8.8,0.9c-4.1,0.4-7,0.6-8.5,0.6c-6.9,0.4-10.3,0.9-10.3,1.4
				c0,0.4,0.1,0.8,0.2,1.2c0.6,1.7,0.3,2.7-0.9,2.9c-0.9-0.2-1.7-0.7-2.3-1.4c-1.1-1.7-2.6-2.3-4.4-1.7h-0.5
				c-2.7,0-10.5-3.2-23.6-9.7c-13.1-6.4-23.8-12.3-32.1-17.7l-12.9-8.3l-17.3,42.6c-11.7,28.2-18,42.3-19,42.3s-3.4-2.8-7.4-8.5
				s-6.9-10.4-8.8-14.3c-0.8-1.5-1.2-2.8-1.2-3.7c0-2.3,3.1-11.9,9.4-28.8c7-18.8,11.3-28.2,12.9-28.2c1.1,0,1.8-0.2,2.1-0.6
				s0.3-0.8,0.1-1.2s-0.5-0.9-0.8-1.4s-0.5-1-0.5-1.2c0-2.9,3.7-14,11-33.4C1009,314.6,1014.3,299.9,1018.3,289.7z M994.8,371.2
				c0.5,0,0.7-0.3,0.7-0.9s-0.2-0.9-0.7-0.9s-0.7,0.3-0.7,0.9S994.4,371.2,994.8,371.2z M1113.2,309.9l9.1-4.4l-41.4,1.3h-41.6
				l-3.5,8.6c-2.2,6-3.3,9.9-3.3,11.8c0,2.3,1.6,4.3,4.9,6c1.9,1,3.5,1.4,4.9,1.4c2.8,0,11.7-2.6,26.7-7.8
				c18.3-6.1,28.5-9.9,30.6-11.2C1101.1,314.9,1105.6,313,1113.2,309.9z M1062.2,343.8c0-0.4-0.8-0.6-2.3-0.6
				c-1.4,0-1.8,0.6-1.2,1.7c0.5,0.8,1.2,1,2.1,0.7S1062.2,344.8,1062.2,343.8z M1068.3,346.1c0.6,0.8,1.2,0.8,1.8,0
				c0.5-0.8,0.3-1.1-0.8-1.1C1068,345,1067.7,345.4,1068.3,346.1z M1084.9,345.8c0-0.8-0.7-1.3-2.2-1.6c-1.5-0.3-2.7,0-3.6,0.7
				c-0.6,1,0,1.5,1.9,1.7C1083.6,346.7,1084.9,346.4,1084.9,345.8z M1085.4,385c1.7,0,2.7-0.7,3-2c0.2-0.6-0.1-1-0.7-1.2
				c-0.3-0.2-0.8-0.3-1.4-0.3c-1.9,0-2.8,0.6-2.8,1.7C1083.5,384.4,1084.1,385,1085.4,385z M1086.8,346.1c0.6,0.8,1.3,0.8,1.9,0
				s0.3-1.1-0.9-1.1C1086.5,345,1086.2,345.4,1086.8,346.1z M1095.4,385c1.6,0,2.5-0.7,2.8-2c0.2-0.6,0-1-0.5-1.2
				c-0.3-0.2-0.8-0.3-1.4-0.3c-2,0-3,0.6-3,1.7C1093.3,384.4,1094,385,1095.4,385z M1126.6,381.2l8.7-1.4h-10.1
				c-6.1,0-11.9,0.4-17.5,1.2l-7.9,1.2l5.4,1.4c1.6,0.4,3,0.6,4.4,0.6c1.7,0,3.3-0.2,4.9-0.6C1118,382.6,1122,381.8,1126.6,381.2z
				 M1107.6,392.8c0.6-0.6,0.9-1.2,0.9-1.7c0-1.5-1.2-2.3-3.5-2.3c-1.3,0-2,0.5-2.3,1.4c-0.3,0.6-0.2,1.2,0.5,1.9
				c0.6,0.7,1.4,1.1,2.2,1.2C1106.2,393.3,1107,393.2,1107.6,392.8z"/>
			<path class="st2" d="M1018.3,289.7c1.6-4.2,2.8-7.1,3.9-8.5c1-1.4,2.1-2.2,3.4-2.2c0.9,0,8.9,0.6,23.9,1.7
				c11.2,1.1,23.1,1.7,35.6,1.7c9.4,0.2,26.2,1.1,50.4,2.7s36.6,2.7,37.1,3.3c0.3,0.2,2.3,4,6.1,11.5c2.8,5.6,4.2,9.3,4.2,11.2
				c0,0.8-0.2,1.4-0.5,1.7c-1.4,1.7-13.8,7.2-37.2,16.4c-22.3,8.8-35,14.4-38.1,16.7c-1.7,1.1-5.3,2.9-10.8,5.2
				c-5.9,2.1-8.9,3.5-8.9,4.3c0,1,3.6,3.3,10.6,6.9c7.1,3.7,11.5,5.5,13.2,5.5c0.6,0,9.9,4.1,27.7,12.4
				c17.8,8.3,26.8,12.8,26.8,13.5c0,1.3-4.2,6.9-12.5,16.6s-13.1,14.5-14.4,14.5c-0.3,0-0.9-0.1-1.9-0.4c-0.9-0.3-2.1-0.7-3.6-1.3
				c-1.5-0.6-2.7-1-3.6-1.2c-17.3-5.4-26-8.6-26-9.8c0-0.6,4-1.4,11.9-2.6c7.8-1.2,12.9-2.1,15.3-2.9s3.6-1.9,3.6-3.5
				c0-1.2-1.1-1.7-3.3-1.7c-2.2,0-4.1,0.1-5.6,0.3c-1.7,0.2-4.6,0.5-8.8,0.9c-4.1,0.4-7,0.6-8.5,0.6c-6.9,0.4-10.3,0.9-10.3,1.4
				c0,0.4,0.1,0.8,0.2,1.2c0.6,1.7,0.3,2.7-0.9,2.9c-0.9-0.2-1.7-0.7-2.3-1.4c-1.1-1.7-2.6-2.3-4.4-1.7h-0.5
				c-2.7,0-10.5-3.2-23.6-9.7c-13.1-6.4-23.8-12.3-32.1-17.7l-12.9-8.3l-17.3,42.6c-11.7,28.2-18,42.3-19,42.3s-3.4-2.8-7.4-8.5
				s-6.9-10.4-8.8-14.3c-0.8-1.5-1.2-2.8-1.2-3.7c0-2.3,3.1-11.9,9.4-28.8c7-18.8,11.3-28.2,12.9-28.2c1.1,0,1.8-0.2,2.1-0.6
				s0.3-0.8,0.1-1.2s-0.5-0.9-0.8-1.4s-0.5-1-0.5-1.2c0-2.9,3.7-14,11-33.4C1009,314.6,1014.3,299.9,1018.3,289.7z M994.8,371.2
				c0.5,0,0.7-0.3,0.7-0.9s-0.2-0.9-0.7-0.9s-0.7,0.3-0.7,0.9S994.4,371.2,994.8,371.2z M1113.2,309.9l9.1-4.4l-41.4,1.3h-41.6
				l-3.5,8.6c-2.2,6-3.3,9.9-3.3,11.8c0,2.3,1.6,4.3,4.9,6c1.9,1,3.5,1.4,4.9,1.4c2.8,0,11.7-2.6,26.7-7.8
				c18.3-6.1,28.5-9.9,30.6-11.2C1101.1,314.9,1105.6,313,1113.2,309.9z M1062.2,343.8c0-0.4-0.8-0.6-2.3-0.6
				c-1.4,0-1.8,0.6-1.2,1.7c0.5,0.8,1.2,1,2.1,0.7S1062.2,344.8,1062.2,343.8z M1068.3,346.1c0.6,0.8,1.2,0.8,1.8,0
				c0.5-0.8,0.3-1.1-0.8-1.1C1068,345,1067.7,345.4,1068.3,346.1z M1084.9,345.8c0-0.8-0.7-1.3-2.2-1.6c-1.5-0.3-2.7,0-3.6,0.7
				c-0.6,1,0,1.5,1.9,1.7C1083.6,346.7,1084.9,346.4,1084.9,345.8z M1085.4,385c1.7,0,2.7-0.7,3-2c0.2-0.6-0.1-1-0.7-1.2
				c-0.3-0.2-0.8-0.3-1.4-0.3c-1.9,0-2.8,0.6-2.8,1.7C1083.5,384.4,1084.1,385,1085.4,385z M1086.8,346.1c0.6,0.8,1.3,0.8,1.9,0
				s0.3-1.1-0.9-1.1C1086.5,345,1086.2,345.4,1086.8,346.1z M1095.4,385c1.6,0,2.5-0.7,2.8-2c0.2-0.6,0-1-0.5-1.2
				c-0.3-0.2-0.8-0.3-1.4-0.3c-2,0-3,0.6-3,1.7C1093.3,384.4,1094,385,1095.4,385z M1126.6,381.2l8.7-1.4h-10.1
				c-6.1,0-11.9,0.4-17.5,1.2l-7.9,1.2l5.4,1.4c1.6,0.4,3,0.6,4.4,0.6c1.7,0,3.3-0.2,4.9-0.6C1118,382.6,1122,381.8,1126.6,381.2z
				 M1107.6,392.8c0.6-0.6,0.9-1.2,0.9-1.7c0-1.5-1.2-2.3-3.5-2.3c-1.3,0-2,0.5-2.3,1.4c-0.3,0.6-0.2,1.2,0.5,1.9
				c0.6,0.7,1.4,1.1,2.2,1.2C1106.2,393.3,1107,393.2,1107.6,392.8z"/>
		</g>
	</g>
	<g>
		
			<image style="overflow:visible;opacity:0.75;enable-background:new    ;" width="249" height="228" xlink:href="DFE032F7.png"  transform="matrix(1 0 0 1 1200 245.2943)">
		</image>
		<g>
			<path class="st1" d="M1209.6,258.9c0.8-2.5,2.7-3.7,5.8-3.7c2.2,0,3.3,0.9,3.3,2.6c0,1.4,2,2.4,6.1,3.2c4.1,0.8,16.4,2.2,37,4.3
				l28.3,2.9l5.4-3.7c3.3-2.3,6-3.5,8.2-3.5c0.5,0,1.9,0.2,4.4,0.6c4.4,0.8,6.6,1.9,6.6,3.5c0,0.8-0.1,1.4-0.2,2
				c-0.3,1.9-0.3,3.1,0,3.5s1.3,0.6,3,0.6c3.9,0,15.8,1.1,35.6,3.5c20.4,2.1,32.8,4.5,37.2,7.2c3.7,2.3,10.4,4.3,20.1,6
				c9.4,1.4,14.3,2.4,15,3.2c0.5,0.6,0,1.8-1.4,3.7c-0.6,1.4-2.2,2-4.7,2c-3.7,0-13.8-1.4-30.2-4.3l-33-5.8l-9.8,5.5
				c-5.9,3.3-10.7,4.9-14.3,4.9c-0.8,0-4.1-0.2-10.1-0.6c-2-0.2-4.4-0.4-7.1-0.6s-4.8-0.3-6.2-0.4c-1.4-0.1-2.2-0.1-2.3-0.1
				c-0.9,0-6.6,14.2-16.8,42.6c-5.2,14.4-9.2,25.7-12.3,33.8s-6.2,16.8-9.5,25.8s-6.8,18.5-10.5,28.5s-6.3,16.5-7.7,19.4
				s-2.7,4.5-3.7,4.5h-0.7c-1.7-0.6-2.9-1.5-3.6-2.7c-0.7-1.3-1.1-3.4-1.1-6.5c0-2.5,0.4-8.3,1.2-17.6c0.9-11.1,1.7-17.8,2.2-20
				s1.8-3.5,3.6-3.9c1.6-0.4,3.1-2.5,4.6-6.3s4.9-14.3,10.2-31.4c7.5-24,11.9-37,13.3-39.2c0.6-0.8,0.9-2.1,0.9-4
				c0-1.1,1-5.4,3-12.8s3-11.6,3-12.5c0-0.6-5.2-1.4-15.4-2.6c-16.4-1.9-27.4-3.5-33.1-4.9c-5.7-1.3-10.3-3.5-13.7-6.6
				c-7.2-6.3-10.8-12.4-10.8-18.1C1209.4,259.8,1209.4,259.3,1209.6,258.9z M1242.1,273.3c1.4,0,2.1-0.6,2.1-1.7s-0.7-1.7-2.1-1.7
				s-2.1,0.6-2.1,1.7C1240,272.7,1240.7,273.3,1242.1,273.3z M1253.3,286.8c-0.2-0.4-0.8-0.7-1.9-0.9c-1.3,0.2-1.9,0.5-1.9,0.9
				C1250.8,287.2,1252.1,287.2,1253.3,286.8z M1269.9,286.5c0-0.6-0.3-0.9-0.9-0.9c-0.5,0-0.7,0.3-0.7,0.9s0.2,0.9,0.7,0.9
				C1269.6,287.4,1269.9,287.1,1269.9,286.5z M1272.3,286.9c1.1,0.8,1.9,0.7,2.6-0.3c0.5-0.6,0.3-0.9-0.5-0.9c-0.3,0-0.7,0-1.2,0
				c-0.8,0-1.3,0.1-1.5,0.4C1271.5,286.5,1271.7,286.8,1272.3,286.9z M1288.2,320.5c0-1.1-1.2-1.7-3.5-1.7c-1.9,0-2.8,0.4-2.8,1.1
				c0,1.5,1.3,2.3,3.7,2.3C1287.3,322.2,1288.2,321.6,1288.2,320.5z M1288.7,286.8c0.6,0.8,1.3,0.8,1.9,0c0-0.6-0.3-1-0.9-1.1
				C1288.3,285.6,1288,286,1288.7,286.8z M1315.1,284.8c0-1.3-0.2-2.1-0.7-2.3s-1.5,0.1-3,0.9c-1.4,0.8-2,1.6-1.8,2.6
				s1.1,1.4,2.7,1.4C1314.2,287.4,1315.1,286.5,1315.1,284.8z"/>
			<path class="st2" d="M1209.6,258.9c0.8-2.5,2.7-3.7,5.8-3.7c2.2,0,3.3,0.9,3.3,2.6c0,1.4,2,2.4,6.1,3.2c4.1,0.8,16.4,2.2,37,4.3
				l28.3,2.9l5.4-3.7c3.3-2.3,6-3.5,8.2-3.5c0.5,0,1.9,0.2,4.4,0.6c4.4,0.8,6.6,1.9,6.6,3.5c0,0.8-0.1,1.4-0.2,2
				c-0.3,1.9-0.3,3.1,0,3.5s1.3,0.6,3,0.6c3.9,0,15.8,1.1,35.6,3.5c20.4,2.1,32.8,4.5,37.2,7.2c3.7,2.3,10.4,4.3,20.1,6
				c9.4,1.4,14.3,2.4,15,3.2c0.5,0.6,0,1.8-1.4,3.7c-0.6,1.4-2.2,2-4.7,2c-3.7,0-13.8-1.4-30.2-4.3l-33-5.8l-9.8,5.5
				c-5.9,3.3-10.7,4.9-14.3,4.9c-0.8,0-4.1-0.2-10.1-0.6c-2-0.2-4.4-0.4-7.1-0.6s-4.8-0.3-6.2-0.4c-1.4-0.1-2.2-0.1-2.3-0.1
				c-0.9,0-6.6,14.2-16.8,42.6c-5.2,14.4-9.2,25.7-12.3,33.8s-6.2,16.8-9.5,25.8s-6.8,18.5-10.5,28.5s-6.3,16.5-7.7,19.4
				s-2.7,4.5-3.7,4.5h-0.7c-1.7-0.6-2.9-1.5-3.6-2.7c-0.7-1.3-1.1-3.4-1.1-6.5c0-2.5,0.4-8.3,1.2-17.6c0.9-11.1,1.7-17.8,2.2-20
				s1.8-3.5,3.6-3.9c1.6-0.4,3.1-2.5,4.6-6.3s4.9-14.3,10.2-31.4c7.5-24,11.9-37,13.3-39.2c0.6-0.8,0.9-2.1,0.9-4
				c0-1.1,1-5.4,3-12.8s3-11.6,3-12.5c0-0.6-5.2-1.4-15.4-2.6c-16.4-1.9-27.4-3.5-33.1-4.9c-5.7-1.3-10.3-3.5-13.7-6.6
				c-7.2-6.3-10.8-12.4-10.8-18.1C1209.4,259.8,1209.4,259.3,1209.6,258.9z M1242.1,273.3c1.4,0,2.1-0.6,2.1-1.7s-0.7-1.7-2.1-1.7
				s-2.1,0.6-2.1,1.7C1240,272.7,1240.7,273.3,1242.1,273.3z M1253.3,286.8c-0.2-0.4-0.8-0.7-1.9-0.9c-1.3,0.2-1.9,0.5-1.9,0.9
				C1250.8,287.2,1252.1,287.2,1253.3,286.8z M1269.9,286.5c0-0.6-0.3-0.9-0.9-0.9c-0.5,0-0.7,0.3-0.7,0.9s0.2,0.9,0.7,0.9
				C1269.6,287.4,1269.9,287.1,1269.9,286.5z M1272.3,286.9c1.1,0.8,1.9,0.7,2.6-0.3c0.5-0.6,0.3-0.9-0.5-0.9c-0.3,0-0.7,0-1.2,0
				c-0.8,0-1.3,0.1-1.5,0.4C1271.5,286.5,1271.7,286.8,1272.3,286.9z M1288.2,320.5c0-1.1-1.2-1.7-3.5-1.7c-1.9,0-2.8,0.4-2.8,1.1
				c0,1.5,1.3,2.3,3.7,2.3C1287.3,322.2,1288.2,321.6,1288.2,320.5z M1288.7,286.8c0.6,0.8,1.3,0.8,1.9,0c0-0.6-0.3-1-0.9-1.1
				C1288.3,285.6,1288,286,1288.7,286.8z M1315.1,284.8c0-1.3-0.2-2.1-0.7-2.3s-1.5,0.1-3,0.9c-1.4,0.8-2,1.6-1.8,2.6
				s1.1,1.4,2.7,1.4C1314.2,287.4,1315.1,286.5,1315.1,284.8z"/>
		</g>
	</g>
	
		<image style="overflow:visible;enable-background:new    ;" width="761" height="508" xlink:href="DFE03307.png"  transform="matrix(1 0 0 1 615 115.2943)">
	</image>
	<g>
		
			<image style="overflow:visible;opacity:0.75;enable-background:new    ;" width="281" height="226" xlink:href="DFE03309.png"  transform="matrix(1 0 0 1 683 251.2943)">
		</image>
		<g>
			<path class="st1" d="M765.2,295.4l20.3-34.4l30.7,1.1c32.4,1.1,58,1.9,76.7,2.2c31,0.7,46.9,1.2,47.7,1.4c0.2,0,0.2,0.3,0.2,0.8
				c0,1.9-1.7,6.1-5.2,12.8l-6.5,12.5h-67.4c-1.4,2.2-3.4,5.6-5.8,10h-46.5c-3.1,8.1-5.6,14.1-7.3,18l48.5-1.5
				c17.9-0.4,29.3-0.6,34.3-0.6c9.6,0,14.3,0.2,14.3,0.6c0,1-2.3,6-6.8,15c-2.8,5.8-4.9,9.6-6.2,11.4s-2.9,3-4.6,3.3
				c-2.5,0.6-20.1,3.4-52.7,8.4l-48.2,7.5l-6.6,15.6c-1.1,2.7-2.1,5.3-3.1,7.8s-1.7,4.5-2.1,6.1c-0.5,1.5-0.6,2.3-0.5,2.3
				c2,0,35-6.4,99-19.1c9.4-1.9,15.5-2.9,18.3-2.9c1.7,0,2.9,0.4,3.5,1.2c0.3,0.4,0.5,0.9,0.5,1.5c0,2.1-2.2,8.3-6.6,18.5l-7.5,18.2
				L801.7,433c-41.5,11.2-67.7,18.1-78.5,20.8h-1.4c-2.5,0-6.5-2.8-12-8.4c-6.9-7.1-11.5-12-13.6-14.6c-2.2-2.6-3.3-4.8-3.3-6.5
				s6.3-13.8,19-36c12.7-22.3,19.6-33.8,20.7-34.6l4.9-0.9c3.3-0.6,6.5-1.3,9.5-2c3.1-0.8,4.6-1.4,4.6-1.7c0-0.2,0-2.3,0-2.5
				c-0.2-0.4-0.2-0.6-0.1-0.7s0.3-0.1,0.8-0.1c1.1,0,1.9,0.6,2.3,1.7c0.8,1.1,7.6,1.7,20.3,1.7c9.5,0,14.3-0.5,14.3-1.4
				c0-1.9-1.6-3.2-4.8-4s-9.5-1.5-18.8-2.1c-3.3-0.2-7.2-0.3-11.7-0.3c-5.6,0-8.6,0.5-8.9,1.4c-0.5,1.3-1.5,1-3-0.8
				c-1.1-1.3-1.6-2.3-1.6-3.1c0-0.9,0.6-2.4,1.9-4.4C743,332.8,750.7,319.9,765.2,295.4z M712.7,405.4c0.8,0.4,1.5,0.5,2.1,0.3
				c0.8-0.4,0.9-0.8,0.2-1.2c-0.3-0.2-0.9-0.2-1.6,0C711.9,404.6,711.6,404.9,712.7,405.4z M768.9,400.8c0-0.2,0-0.3,0.1-0.3
				s0.1-0.1,0.1-0.3c0-1-2.2-1.4-6.5-1.4h-5.4c-12,0.4-19.6,0.9-22.7,1.4s-5.4,1.8-6.8,3.7l-2.6,3.7l18.3-1.2
				c10.5-0.8,17.2-1.5,20.1-2.2C766.5,403.7,768.3,402.5,768.9,400.8z M750.6,331.4c-0.8,0.8-1.3,1.3-1.5,1.6
				c-0.2,0.3-0.3,0.6-0.1,0.9s0.6,0.6,1.4,1c0.9,0.4,1.7,0.6,2.3,0.6c2.5,0,3.7-0.9,3.7-2.6s-0.7-2.7-2-2.9
				C753.2,329.8,751.9,330.3,750.6,331.4z M803.7,325.1l3.3-2.3h-4.4c-3-0.6-4.4,0-4.4,1.1s-0.9,1.4-2.8,1.9H794
				c-2.8-1.3-7.2-0.7-13.1,0.5c-5.9,1.1-9.6,2.1-11,2.9c-1.6,1-1.1,1.7,1.4,2.3c0.5,0.2,1.5,0.3,3,0.3c4.2,0,9.8-0.8,16.7-2.3
				C797.9,327.9,802.2,326.4,803.7,325.1z M816.4,398.2c0-1.7-1.9-2.5-5.6-2.3c-2.2,0.2-4.1,0.4-5.8,0.7s-3.5,0.5-5.4,0.7
				s-4.9,0.3-9.1,0.3c-9,0.2-14.1,1-15.2,2.3c-0.9,1.5-0.7,2.7,0.7,3.5c0.9,0.4,2.7,0.6,5.2,0.6c4.8,0,10.6-0.3,17.2-1
				c6.6-0.7,10.1-1.4,10.4-2.2c0.3-1,1.7-1,4.2-0.3C815.2,401.1,816.4,400.4,816.4,398.2z M808.4,334.6c0.6-0.8,0.3-2.1-0.9-4
				c-0.8-1.3-1.4-1.9-1.9-1.7s-1.5,1.4-3,3.5c-2,2.9-2.6,4.8-1.6,5.8c0.6,0.4,1.2,0.6,1.6,0.6C805,338.6,807,337.3,808.4,334.6z
				 M837.7,398.2c0-1.7-0.2-2.6-0.5-2.6s-1.3,0.9-3,2.6c-1.9,1.5-1.7,2.4,0.5,2.6C836.6,400.8,837.7,400,837.7,398.2z"/>
			<path class="st2" d="M765.2,295.4l20.3-34.4l30.7,1.1c32.4,1.1,58,1.9,76.7,2.2c31,0.7,46.9,1.2,47.7,1.4c0.2,0,0.2,0.3,0.2,0.8
				c0,1.9-1.7,6.1-5.2,12.8l-6.5,12.5h-67.4c-1.4,2.2-3.4,5.6-5.8,10h-46.5c-3.1,8.1-5.6,14.1-7.3,18l48.5-1.5
				c17.9-0.4,29.3-0.6,34.3-0.6c9.6,0,14.3,0.2,14.3,0.6c0,1-2.3,6-6.8,15c-2.8,5.8-4.9,9.6-6.2,11.4s-2.9,3-4.6,3.3
				c-2.5,0.6-20.1,3.4-52.7,8.4l-48.2,7.5l-6.6,15.6c-1.1,2.7-2.1,5.3-3.1,7.8s-1.7,4.5-2.1,6.1c-0.5,1.5-0.6,2.3-0.5,2.3
				c2,0,35-6.4,99-19.1c9.4-1.9,15.5-2.9,18.3-2.9c1.7,0,2.9,0.4,3.5,1.2c0.3,0.4,0.5,0.9,0.5,1.5c0,2.1-2.2,8.3-6.6,18.5l-7.5,18.2
				L801.7,433c-41.5,11.2-67.7,18.1-78.5,20.8h-1.4c-2.5,0-6.5-2.8-12-8.4c-6.9-7.1-11.5-12-13.6-14.6c-2.2-2.6-3.3-4.8-3.3-6.5
				s6.3-13.8,19-36c12.7-22.3,19.6-33.8,20.7-34.6l4.9-0.9c3.3-0.6,6.5-1.3,9.5-2c3.1-0.8,4.6-1.4,4.6-1.7c0-0.2,0-2.3,0-2.5
				c-0.2-0.4-0.2-0.6-0.1-0.7s0.3-0.1,0.8-0.1c1.1,0,1.9,0.6,2.3,1.7c0.8,1.1,7.6,1.7,20.3,1.7c9.5,0,14.3-0.5,14.3-1.4
				c0-1.9-1.6-3.2-4.8-4s-9.5-1.5-18.8-2.1c-3.3-0.2-7.2-0.3-11.7-0.3c-5.6,0-8.6,0.5-8.9,1.4c-0.5,1.3-1.5,1-3-0.8
				c-1.1-1.3-1.6-2.3-1.6-3.1c0-0.9,0.6-2.4,1.9-4.4C743,332.8,750.7,319.9,765.2,295.4z M712.7,405.4c0.8,0.4,1.5,0.5,2.1,0.3
				c0.8-0.4,0.9-0.8,0.2-1.2c-0.3-0.2-0.9-0.2-1.6,0C711.9,404.6,711.6,404.9,712.7,405.4z M768.9,400.8c0-0.2,0-0.3,0.1-0.3
				s0.1-0.1,0.1-0.3c0-1-2.2-1.4-6.5-1.4h-5.4c-12,0.4-19.6,0.9-22.7,1.4s-5.4,1.8-6.8,3.7l-2.6,3.7l18.3-1.2
				c10.5-0.8,17.2-1.5,20.1-2.2C766.5,403.7,768.3,402.5,768.9,400.8z M750.6,331.4c-0.8,0.8-1.3,1.3-1.5,1.6
				c-0.2,0.3-0.3,0.6-0.1,0.9s0.6,0.6,1.4,1c0.9,0.4,1.7,0.6,2.3,0.6c2.5,0,3.7-0.9,3.7-2.6s-0.7-2.7-2-2.9
				C753.2,329.8,751.9,330.3,750.6,331.4z M803.7,325.1l3.3-2.3h-4.4c-3-0.6-4.4,0-4.4,1.1s-0.9,1.4-2.8,1.9H794
				c-2.8-1.3-7.2-0.7-13.1,0.5c-5.9,1.1-9.6,2.1-11,2.9c-1.6,1-1.1,1.7,1.4,2.3c0.5,0.2,1.5,0.3,3,0.3c4.2,0,9.8-0.8,16.7-2.3
				C797.9,327.9,802.2,326.4,803.7,325.1z M816.4,398.2c0-1.7-1.9-2.5-5.6-2.3c-2.2,0.2-4.1,0.4-5.8,0.7s-3.5,0.5-5.4,0.7
				s-4.9,0.3-9.1,0.3c-9,0.2-14.1,1-15.2,2.3c-0.9,1.5-0.7,2.7,0.7,3.5c0.9,0.4,2.7,0.6,5.2,0.6c4.8,0,10.6-0.3,17.2-1
				c6.6-0.7,10.1-1.4,10.4-2.2c0.3-1,1.7-1,4.2-0.3C815.2,401.1,816.4,400.4,816.4,398.2z M808.4,334.6c0.6-0.8,0.3-2.1-0.9-4
				c-0.8-1.3-1.4-1.9-1.9-1.7s-1.5,1.4-3,3.5c-2,2.9-2.6,4.8-1.6,5.8c0.6,0.4,1.2,0.6,1.6,0.6C805,338.6,807,337.3,808.4,334.6z
				 M837.7,398.2c0-1.7-0.2-2.6-0.5-2.6s-1.3,0.9-3,2.6c-1.9,1.5-1.7,2.4,0.5,2.6C836.6,400.8,837.7,400,837.7,398.2z"/>
		</g>
	</g>
	<g>
		
			<image style="overflow:visible;opacity:0.75;enable-background:new    ;" width="281" height="226" xlink:href="DFE0330B.png"  transform="matrix(1 0 0 1 1403 251.2943)">
		</image>
		<g>
			<path class="st1" d="M1484.9,295.7l20.3-35.1l30.7,1.1c32.4,1.1,58,1.9,76.7,2.3c31,0.8,46.9,1.2,47.7,1.4c0.2,0,0.2,0.3,0.2,0.9
				c0,1.9-1.7,6.2-5.2,13l-6.6,12.7h-67.4c-1.4,2.3-3.4,5.7-5.8,10.2h-46.6c-3.1,8.1-5.6,14.1-7.3,17.9l48.3-1.4
				c17.8-0.4,29.3-0.6,34.3-0.6c9.5,0,14.3,0.2,14.3,0.6c0,1-2.3,6-6.8,15c-2.8,5.8-4.9,9.6-6.2,11.4c-1.3,1.8-2.9,2.9-4.6,3.3
				c-2.5,0.6-20,3.4-52.6,8.4l-48.1,7.5l-6.6,15.6c-1.1,2.7-2.1,5.3-3.1,7.8c-0.9,2.5-1.6,4.5-2.1,6.1c-0.5,1.5-0.6,2.3-0.5,2.3
				c2,0,35-6.3,98.8-19.1c9.4-1.9,15.5-2.9,18.3-2.9c1.7,0,2.9,0.4,3.5,1.2c0.3,0.4,0.5,0.9,0.5,1.4c0,2.1-2.2,8.3-6.6,18.5
				l-7.5,18.2L1521,433c-41.4,11.2-67.6,18.1-78.4,20.8h-1.4c-2.5,0-6.5-2.8-12-8.4c-6.9-7.1-11.4-12-13.6-14.6s-3.3-4.8-3.3-6.5
				s6.3-13.7,19-36c12.7-22.2,19.6-33.7,20.7-34.5l4.9-0.9c3.3-0.6,6.4-1.3,9.5-2s4.6-1.3,4.6-1.7c0-0.2,0-1.3,0-1.5
				c-0.2-0.4-0.2-0.6-0.1-0.7s0.3-0.1,0.8-0.1c1.1,0,1.9,0.6,2.3,1.7c0.8,1.1,7.6,1.7,20.3,1.7c9.5,0,14.3-0.5,14.3-1.4
				c0-1.9-1.6-3.3-4.8-4.1c-3.2-0.9-9.5-1.6-18.8-2.1c-3.3-0.2-7.2-0.3-11.7-0.3c-5.6,0-8.6,0.5-8.9,1.4c-0.5,1.3-1.5,1-3-0.9
				c-1.1-1.3-1.6-2.4-1.6-3.1c0-0.9,0.6-2.5,1.9-4.5C1462.8,333.8,1470.4,320.6,1484.9,295.7z M1432,405.4c0.8,0.4,1.5,0.5,2.1,0.3
				c0.8-0.4,0.9-0.8,0.2-1.2c-0.3-0.2-0.9-0.2-1.6,0C1431.2,404.6,1430.9,404.9,1432,405.4z M1488.2,401c0-0.2,0-0.3,0.1-0.3
				s0.1-0.1,0.1-0.3c0-1-2.2-1.4-6.6-1.4h-5.4c-12,0.4-19.6,0.9-22.7,1.4s-5.4,1.8-6.8,3.7l-2.6,3.7l18.3-1.2
				c10.4-0.8,17.2-1.5,20.1-2.2C1485.8,404,1487.5,402.8,1488.2,401z M1469.9,331.4c-0.8,0.8-1.3,1.3-1.5,1.6
				c-0.2,0.3-0.3,0.6-0.1,0.9c0.2,0.3,0.6,0.6,1.4,1c0.9,0.4,1.7,0.6,2.3,0.6c2.5,0,3.7-0.9,3.7-2.6s-0.7-2.7-2-2.9
				C1472.4,329.8,1471.2,330.3,1469.9,331.4z M1523,325.1l3.3-2.5h-4.4c-3-0.3-4.4,0.2-4.4,1.4s-0.9,1.4-2.8,1.2h-1.4
				c-2.8-0.6-7.2,0-13.1,1.1s-9.6,2.1-11,2.9c-1.6,1-1.1,1.7,1.4,2.3c0.5,0.2,1.5,0.3,3,0.3c4.2,0,9.8-0.8,16.7-2.3
				C1517.2,327.9,1521.5,326.4,1523,325.1z M1535.7,398.2c0-1.7-1.9-2.5-5.6-2.3c-2.2,0.2-4.1,0.4-5.8,0.7s-3.5,0.5-5.4,0.7
				s-4.9,0.3-9.1,0.3c-9.1,0.2-14.1,1-15.2,2.3c-0.9,1.5-0.7,2.7,0.7,3.5c0.9,0.4,2.7,0.6,5.2,0.6c4.8,0,10.6-0.3,17.2-1
				s10.1-1.4,10.4-2.2c0.3-1,1.7-1,4.2-0.3C1534.5,401.1,1535.7,400.4,1535.7,398.2z M1527.7,334.6c0.6-0.8,0.3-2.1-0.9-4
				c-0.8-1.3-1.4-1.9-1.9-1.7s-1.5,1.4-3,3.5c-2,2.9-2.6,4.8-1.6,5.8c0.6,0.4,1.2,0.6,1.6,0.6
				C1524.3,338.6,1526.3,337.3,1527.7,334.6z M1556.9,398.2c0-1.7-0.2-2.6-0.5-2.6s-1.3,0.9-3,2.6c-1.9,1.5-1.7,2.4,0.5,2.6
				C1555.9,400.8,1556.9,400,1556.9,398.2z"/>
			<path class="st2" d="M1484.9,295.7l20.3-35.1l30.7,1.1c32.4,1.1,58,1.9,76.7,2.3c31,0.8,46.9,1.2,47.7,1.4c0.2,0,0.2,0.3,0.2,0.9
				c0,1.9-1.7,6.2-5.2,13l-6.6,12.7h-67.4c-1.4,2.3-3.4,5.7-5.8,10.2h-46.6c-3.1,8.1-5.6,14.1-7.3,17.9l48.3-1.4
				c17.8-0.4,29.3-0.6,34.3-0.6c9.5,0,14.3,0.2,14.3,0.6c0,1-2.3,6-6.8,15c-2.8,5.8-4.9,9.6-6.2,11.4c-1.3,1.8-2.9,2.9-4.6,3.3
				c-2.5,0.6-20,3.4-52.6,8.4l-48.1,7.5l-6.6,15.6c-1.1,2.7-2.1,5.3-3.1,7.8c-0.9,2.5-1.6,4.5-2.1,6.1c-0.5,1.5-0.6,2.3-0.5,2.3
				c2,0,35-6.3,98.8-19.1c9.4-1.9,15.5-2.9,18.3-2.9c1.7,0,2.9,0.4,3.5,1.2c0.3,0.4,0.5,0.9,0.5,1.4c0,2.1-2.2,8.3-6.6,18.5
				l-7.5,18.2L1521,433c-41.4,11.2-67.6,18.1-78.4,20.8h-1.4c-2.5,0-6.5-2.8-12-8.4c-6.9-7.1-11.4-12-13.6-14.6s-3.3-4.8-3.3-6.5
				s6.3-13.7,19-36c12.7-22.2,19.6-33.7,20.7-34.5l4.9-0.9c3.3-0.6,6.4-1.3,9.5-2s4.6-1.3,4.6-1.7c0-0.2,0-1.3,0-1.5
				c-0.2-0.4-0.2-0.6-0.1-0.7s0.3-0.1,0.8-0.1c1.1,0,1.9,0.6,2.3,1.7c0.8,1.1,7.6,1.7,20.3,1.7c9.5,0,14.3-0.5,14.3-1.4
				c0-1.9-1.6-3.3-4.8-4.1c-3.2-0.9-9.5-1.6-18.8-2.1c-3.3-0.2-7.2-0.3-11.7-0.3c-5.6,0-8.6,0.5-8.9,1.4c-0.5,1.3-1.5,1-3-0.9
				c-1.1-1.3-1.6-2.4-1.6-3.1c0-0.9,0.6-2.5,1.9-4.5C1462.8,333.8,1470.4,320.6,1484.9,295.7z M1432,405.4c0.8,0.4,1.5,0.5,2.1,0.3
				c0.8-0.4,0.9-0.8,0.2-1.2c-0.3-0.2-0.9-0.2-1.6,0C1431.2,404.6,1430.9,404.9,1432,405.4z M1488.2,401c0-0.2,0-0.3,0.1-0.3
				s0.1-0.1,0.1-0.3c0-1-2.2-1.4-6.6-1.4h-5.4c-12,0.4-19.6,0.9-22.7,1.4s-5.4,1.8-6.8,3.7l-2.6,3.7l18.3-1.2
				c10.4-0.8,17.2-1.5,20.1-2.2C1485.8,404,1487.5,402.8,1488.2,401z M1469.9,331.4c-0.8,0.8-1.3,1.3-1.5,1.6
				c-0.2,0.3-0.3,0.6-0.1,0.9c0.2,0.3,0.6,0.6,1.4,1c0.9,0.4,1.7,0.6,2.3,0.6c2.5,0,3.7-0.9,3.7-2.6s-0.7-2.7-2-2.9
				C1472.4,329.8,1471.2,330.3,1469.9,331.4z M1523,325.1l3.3-2.5h-4.4c-3-0.3-4.4,0.2-4.4,1.4s-0.9,1.4-2.8,1.2h-1.4
				c-2.8-0.6-7.2,0-13.1,1.1s-9.6,2.1-11,2.9c-1.6,1-1.1,1.7,1.4,2.3c0.5,0.2,1.5,0.3,3,0.3c4.2,0,9.8-0.8,16.7-2.3
				C1517.2,327.9,1521.5,326.4,1523,325.1z M1535.7,398.2c0-1.7-1.9-2.5-5.6-2.3c-2.2,0.2-4.1,0.4-5.8,0.7s-3.5,0.5-5.4,0.7
				s-4.9,0.3-9.1,0.3c-9.1,0.2-14.1,1-15.2,2.3c-0.9,1.5-0.7,2.7,0.7,3.5c0.9,0.4,2.7,0.6,5.2,0.6c4.8,0,10.6-0.3,17.2-1
				s10.1-1.4,10.4-2.2c0.3-1,1.7-1,4.2-0.3C1534.5,401.1,1535.7,400.4,1535.7,398.2z M1527.7,334.6c0.6-0.8,0.3-2.1-0.9-4
				c-0.8-1.3-1.4-1.9-1.9-1.7s-1.5,1.4-3,3.5c-2,2.9-2.6,4.8-1.6,5.8c0.6,0.4,1.2,0.6,1.6,0.6
				C1524.3,338.6,1526.3,337.3,1527.7,334.6z M1556.9,398.2c0-1.7-0.2-2.6-0.5-2.6s-1.3,0.9-3,2.6c-1.9,1.5-1.7,2.4,0.5,2.6
				C1555.9,400.8,1556.9,400,1556.9,398.2z"/>
		</g>
	</g>
	<g>
		
			<image style="overflow:visible;opacity:0.75;enable-background:new    ;" width="277" height="287" xlink:href="5B675E58.png"  transform="matrix(1 0 0 1 1678 218.2943)">
		</image>
		<g>
			<path class="st1" d="M1814.5,271.8c47.1-29.2,71-43.8,71.6-43.8c0.3,0,0.5,0.9,0.5,2.6s-2.2,4.6-6.6,8.6s-7.9,8.7-10.5,14.1
				c-1.7,3.3-3.8,6-6.3,8.1s-7.5,5.6-15,10.4c-11.5,6.9-18.8,12-21.8,15.3c-2,2.5-13,10.4-33,23.6c-19.2,12.5-28.8,18.9-28.8,19.3
				s5.7,4.8,17.1,13.3s17.1,13.4,17.1,14.7c0,1.4-1.1,2.4-3.3,3.2c-1.3,0.4-1.9,0.8-2,1.3s0.2,1.2,0.8,2.2c1.3,1.9,3.2,3.5,5.8,4.9
				c3.7,2.1,5.6,6.8,5.6,14.1c0,0.4,0,1.1-0.1,2.2s-0.1,1.9-0.1,2.5c-0.2,2.5-0.1,4.1,0.1,4.9s0.8,1.2,1.8,1.2
				c1.3,0,17.9,10.5,50.1,31.5s51.9,31,51.9,31h0.2l0.2,1c0,0,1.1,0,1.2,0c2.2,0,5.1,1,8.6,3c3.1,1.6,5.2,3,6.3,4.2
				c1.1,1.2,2,3,2.6,5.6c0.9,3.8,1.3,6.7,1.3,8.7c0,1.6-0.3,2.5-0.9,2.5h0.3c0,0-22.7-14.3-56.7-37c-34.1-22.8-66.8-44.5-98-65.2
				c-31.3-20.7-47.1-31-47.4-30.8c-0.3,0.4-5,10-14,28.8c-9.1,19-14,28.5-14.7,28.5c-0.3,0-2.3-1.5-6-4.6s-5.5-4.8-5.5-5.2
				c0-0.2,0.2-0.8,0.5-1.7c0.3-1,0.7-2.4,1.3-4.3c0.5-1.9,1.1-3.7,1.5-5.2c2-5.8,3-9.5,3-11.2c0-1-0.6-3.3-1.6-6.9l-2.3-7.5
				l18.7-43.2c12.6-28.6,20-42.9,22-42.9c0.5,0,0.7,0.7,0.7,2c0,1,1.8,1.4,5.4,1.4c2.7,0,4.8-0.1,6.6-0.3c2-0.2,4.4-0.3,7-0.3
				c3.7,0,5.6,0.9,5.6,2.6s-2.2,8-6.6,18.7c-1.1,2.9-1.9,5.1-2.6,6.6c-0.6,1.5-1.3,3.3-2,5.2c-0.7,1.9-1.2,3.3-1.4,4.2
				c-0.2,0.9-0.3,1.3-0.1,1.3C1744.4,314.7,1768.3,300.4,1814.5,271.8z M1695,356.7c1.1,0.8,2,0.8,2.8,0c0.3-0.6,0.1-0.9-0.7-0.9
				c-0.3,0-0.7,0-1.2,0c-1.3,0-1.7,0.2-1.4,0.6L1695,356.7z M1736.4,341.5c3.4-0.6,5.2-1,5.2-1.1s-3.2-0.4-9.6-0.6
				c-8.4,0-12.6,0.6-12.6,1.7c0,1,1.5,1.4,4.4,1.4C1727.5,343,1731.7,342.5,1736.4,341.5z M1745.3,340.9c0.6,0.8,1.3,0.8,1.9,0
				c0-0.6-0.3-1-0.9-1.1C1744.9,339.8,1744.6,340.2,1745.3,340.9z M1756.7,340.9c-0.8-0.4-1.6-0.7-2.6-0.9c-1.7,0-2.5,0.2-2.3,0.6
				l0.7,0.3C1754.1,341.3,1755.5,341.3,1756.7,340.9z"/>
			<path class="st2" d="M1814.5,271.8c47.1-29.2,71-43.8,71.6-43.8c0.3,0,0.5,0.9,0.5,2.6s-2.2,4.6-6.6,8.6s-7.9,8.7-10.5,14.1
				c-1.7,3.3-3.8,6-6.3,8.1s-7.5,5.6-15,10.4c-11.5,6.9-18.8,12-21.8,15.3c-2,2.5-13,10.4-33,23.6c-19.2,12.5-28.8,18.9-28.8,19.3
				s5.7,4.8,17.1,13.3s17.1,13.4,17.1,14.7c0,1.4-1.1,2.4-3.3,3.2c-1.3,0.4-1.9,0.8-2,1.3s0.2,1.2,0.8,2.2c1.3,1.9,3.2,3.5,5.8,4.9
				c3.7,2.1,5.6,6.8,5.6,14.1c0,0.4,0,1.1-0.1,2.2s-0.1,1.9-0.1,2.5c-0.2,2.5-0.1,4.1,0.1,4.9s0.8,1.2,1.8,1.2
				c1.3,0,17.9,10.5,50.1,31.5s51.9,31,51.9,31h0.2l0.2,1c0,0,1.1,0,1.2,0c2.2,0,5.1,1,8.6,3c3.1,1.6,5.2,3,6.3,4.2
				c1.1,1.2,2,3,2.6,5.6c0.9,3.8,1.3,6.7,1.3,8.7c0,1.6-0.3,2.5-0.9,2.5h0.3c0,0-22.7-14.3-56.7-37c-34.1-22.8-66.8-44.5-98-65.2
				c-31.3-20.7-47.1-31-47.4-30.8c-0.3,0.4-5,10-14,28.8c-9.1,19-14,28.5-14.7,28.5c-0.3,0-2.3-1.5-6-4.6s-5.5-4.8-5.5-5.2
				c0-0.2,0.2-0.8,0.5-1.7c0.3-1,0.7-2.4,1.3-4.3c0.5-1.9,1.1-3.7,1.5-5.2c2-5.8,3-9.5,3-11.2c0-1-0.6-3.3-1.6-6.9l-2.3-7.5
				l18.7-43.2c12.6-28.6,20-42.9,22-42.9c0.5,0,0.7,0.7,0.7,2c0,1,1.8,1.4,5.4,1.4c2.7,0,4.8-0.1,6.6-0.3c2-0.2,4.4-0.3,7-0.3
				c3.7,0,5.6,0.9,5.6,2.6s-2.2,8-6.6,18.7c-1.1,2.9-1.9,5.1-2.6,6.6c-0.6,1.5-1.3,3.3-2,5.2c-0.7,1.9-1.2,3.3-1.4,4.2
				c-0.2,0.9-0.3,1.3-0.1,1.3C1744.4,314.7,1768.3,300.4,1814.5,271.8z M1695,356.7c1.1,0.8,2,0.8,2.8,0c0.3-0.6,0.1-0.9-0.7-0.9
				c-0.3,0-0.7,0-1.2,0c-1.3,0-1.7,0.2-1.4,0.6L1695,356.7z M1736.4,341.5c3.4-0.6,5.2-1,5.2-1.1s-3.2-0.4-9.6-0.6
				c-8.4,0-12.6,0.6-12.6,1.7c0,1,1.5,1.4,4.4,1.4C1727.5,343,1731.7,342.5,1736.4,341.5z M1745.3,340.9c0.6,0.8,1.3,0.8,1.9,0
				c0-0.6-0.3-1-0.9-1.1C1744.9,339.8,1744.6,340.2,1745.3,340.9z M1756.7,340.9c-0.8-0.4-1.6-0.7-2.6-0.9c-1.7,0-2.5,0.2-2.3,0.6
				l0.7,0.3C1754.1,341.3,1755.5,341.3,1756.7,340.9z"/>
		</g>
	</g>
</g>
</svg>
